SplineFontDB: 3.0
FontName: Untitled1
FullName: Untitled1
FamilyName: Untitled1
Weight: Book
Copyright: Copyright (c) 2017, cupz
Version: 001.000
ItalicAngle: 0
UnderlinePosition: 0
UnderlineWidth: 0
Ascent: 7
Descent: 1
InvalidEm: 0
sfntRevision: 0x00010000
LayerCount: 2
Layer: 0 1 "Back" 1
Layer: 1 1 "Fore" 0
XUID: [1021 13 -948012926 7448912]
StyleMap: 0x0000
FSType: 0
OS2Version: 4
OS2_WeightWidthSlopeOnly: 0
OS2_UseTypoMetrics: 1
CreationTime: 1504311201
ModificationTime: 1505609877
PfmFamily: 17
TTFWeight: 400
TTFWidth: 5
LineGap: 1
VLineGap: 0
Panose: 2 0 5 3 0 0 0 0 0 0
OS2TypoAscent: 7
OS2TypoAOffset: 0
OS2TypoDescent: -1
OS2TypoDOffset: 0
OS2TypoLinegap: 1
OS2WinAscent: 7
OS2WinAOffset: 0
OS2WinDescent: 0
OS2WinDOffset: 0
HheadAscent: 7
HheadAOffset: 0
HheadDescent: 0
HheadDOffset: 0
OS2SubXSize: 5
OS2SubYSize: 5
OS2SubXOff: 0
OS2SubYOff: 1
OS2SupXSize: 5
OS2SupYSize: 5
OS2SupXOff: 0
OS2SupYOff: 3
OS2StrikeYSize: 0
OS2StrikeYPos: 2
OS2CapHeight: 7
OS2XHeight: 7
OS2Vendor: 'PfEd'
OS2CodePages: 00000001.00000000
OS2UnicodeRanges: 00000003.00000000.00000000.00000000
MarkAttachClasses: 1
DEI: 91125
ShortTable: cvt  2
  0
  5
EndShort
ShortTable: maxp 16
  1
  0
  171
  82
  21
  0
  0
  2
  0
  1
  1
  0
  64
  46
  0
  0
EndShort
LangName: 1033 "" "" "Regular" "FontForge : Untitled1 : 2-9-2017"
GaspTable: 1 65535 2 0
Encoding: UnicodeBmp
UnicodeInterp: none
NameList: AGL For New Fonts
DisplaySize: -48
AntiAlias: 1
FitToEm: 0
WinInfo: 0 41 8
BeginChars: 65537 171

StartChar: .notdef
Encoding: 65536 -1 0
Width: 0
Flags: W
LayerCount: 2
Fore
SplineSet
0 0 m 1,0,-1
 0 5 l 1,1,-1
 0 5 l 1,2,-1
 0 0 l 1,3,-1
 0 0 l 1,0,-1
0 0 m 1,4,-1
 0 0 l 1,5,-1
 0 5 l 1,6,-1
 0 5 l 1,7,-1
 0 0 l 1,4,-1
EndSplineSet
Validated: 5
EndChar

StartChar: exclam
Encoding: 33 33 34
Width: 2
GlyphClass: 2
Flags: W
LayerCount: 2
Fore
SplineSet
0 1 m 1,0,-1
 0 0 l 1,1,-1
 1 0 l 1,2,-1
 1 1 l 1,3,-1
 0 1 l 1,0,-1
0 7 m 1,4,-1
 1 7 l 1,5,-1
 1 2 l 1,6,-1
 0 2 l 1,7,-1
 0 7 l 1,4,-1
EndSplineSet
Validated: 1
EndChar

StartChar: quotedbl
Encoding: 34 34 35
Width: 5
GlyphClass: 2
Flags: W
LayerCount: 2
Fore
SplineSet
3 7 m 1,0,-1
 3 5 l 1,1,-1
 4 5 l 1,2,-1
 4 7 l 1,3,-1
 3 7 l 1,0,-1
1 7 m 1,4,-1
 1 5 l 1,5,-1
 2 5 l 1,6,-1
 2 7 l 1,7,-1
 1 7 l 1,4,-1
EndSplineSet
Validated: 9
EndChar

StartChar: numbersign
Encoding: 35 35 36
Width: 8
GlyphClass: 2
Flags: W
LayerCount: 2
Fore
SplineSet
4 3 m 1,0,-1
 4 2 l 1,1,-1
 5 2 l 1,2,-1
 5 3 l 1,3,-1
 4 3 l 1,0,-1
4 5 m 1,4,-1
 4 4 l 1,5,-1
 5 4 l 1,6,-1
 5 5 l 1,7,-1
 4 5 l 1,4,-1
2 3 m 1,8,-1
 2 2 l 1,9,-1
 3 2 l 1,10,-1
 3 3 l 1,11,-1
 2 3 l 1,8,-1
2 5 m 1,12,-1
 2 4 l 1,13,-1
 3 4 l 1,14,-1
 3 5 l 1,15,-1
 2 5 l 1,12,-1
0 3 m 1,16,-1
 0 2 l 1,17,-1
 1 2 l 1,18,-1
 1 3 l 1,19,-1
 0 3 l 1,16,-1
0 5 m 1,20,-1
 0 4 l 1,21,-1
 1 4 l 1,22,-1
 1 5 l 1,23,-1
 0 5 l 1,20,-1
3 1 m 1,24,-1
 3 0 l 1,25,-1
 4 0 l 1,26,-1
 4 1 l 1,27,-1
 3 1 l 1,24,-1
3 2 m 1,28,-1
 3 1 l 1,29,-1
 4 1 l 1,30,-1
 4 2 l 1,31,-1
 3 2 l 1,28,-1
3 3 m 1,32,-1
 3 2 l 1,33,-1
 4 2 l 1,34,-1
 4 3 l 1,35,-1
 3 3 l 1,32,-1
3 4 m 1,36,-1
 3 3 l 1,37,-1
 4 3 l 1,38,-1
 4 4 l 1,39,-1
 3 4 l 1,36,-1
3 5 m 1,40,-1
 3 4 l 1,41,-1
 4 4 l 1,42,-1
 4 5 l 1,43,-1
 3 5 l 1,40,-1
3 6 m 1,44,-1
 3 5 l 1,45,-1
 4 5 l 1,46,-1
 4 6 l 1,47,-1
 3 6 l 1,44,-1
3 7 m 1,48,-1
 3 6 l 1,49,-1
 4 6 l 1,50,-1
 4 7 l 1,51,-1
 3 7 l 1,48,-1
1 1 m 1,52,-1
 1 0 l 1,53,-1
 2 0 l 1,54,-1
 2 1 l 1,55,-1
 1 1 l 1,52,-1
1 2 m 1,56,-1
 1 1 l 1,57,-1
 2 1 l 1,58,-1
 2 2 l 1,59,-1
 1 2 l 1,56,-1
1 3 m 1,60,-1
 1 2 l 1,61,-1
 2 2 l 1,62,-1
 2 3 l 1,63,-1
 1 3 l 1,60,-1
1 4 m 1,64,-1
 1 3 l 1,65,-1
 2 3 l 1,66,-1
 2 4 l 1,67,-1
 1 4 l 1,64,-1
1 5 m 1,68,-1
 1 4 l 1,69,-1
 2 4 l 1,70,-1
 2 5 l 1,71,-1
 1 5 l 1,68,-1
1 6 m 1,72,-1
 1 5 l 1,73,-1
 2 5 l 1,74,-1
 2 6 l 1,75,-1
 1 6 l 1,72,-1
1 7 m 1,76,-1
 1 6 l 1,77,-1
 2 6 l 1,78,-1
 2 7 l 1,79,-1
 1 7 l 1,76,-1
EndSplineSet
Validated: 5
EndChar

StartChar: dollar
Encoding: 36 36 37
Width: 8
GlyphClass: 2
Flags: W
LayerCount: 2
Fore
SplineSet
2 4 m 1,0,-1
 2 3 l 1,1,-1
 3 3 l 1,2,-1
 3 4 l 1,3,-1
 2 4 l 1,0,-1
0 4 m 1,4,-1
 0 3 l 1,5,-1
 1 3 l 1,6,-1
 1 4 l 1,7,-1
 0 4 l 1,4,-1
0 2 m 1,8,-1
 0 1 l 1,9,-1
 1 1 l 1,10,-1
 1 2 l 1,11,-1
 0 2 l 1,8,-1
2 6 m 1,12,-1
 2 5 l 1,13,-1
 3 5 l 1,14,-1
 3 6 l 1,15,-1
 2 6 l 1,12,-1
2 2 m 1,16,-1
 2 1 l 1,17,-1
 3 1 l 1,18,-1
 3 2 l 1,19,-1
 2 2 l 1,16,-1
2 3 m 1,20,-1
 2 2 l 1,21,-1
 3 2 l 1,22,-1
 3 3 l 1,23,-1
 2 3 l 1,20,-1
0 5 m 1,24,-1
 0 4 l 1,25,-1
 1 4 l 1,26,-1
 1 5 l 1,27,-1
 0 5 l 1,24,-1
0 6 m 1,28,-1
 0 5 l 1,29,-1
 1 5 l 1,30,-1
 1 6 l 1,31,-1
 0 6 l 1,28,-1
1 1 m 1,32,-1
 1 0 l 1,33,-1
 2 0 l 1,34,-1
 2 1 l 1,35,-1
 1 1 l 1,32,-1
1 2 m 1,36,-1
 1 1 l 1,37,-1
 2 1 l 1,38,-1
 2 2 l 1,39,-1
 1 2 l 1,36,-1
1 3 m 1,40,-1
 1 2 l 1,41,-1
 2 2 l 1,42,-1
 2 3 l 1,43,-1
 1 3 l 1,40,-1
1 4 m 1,44,-1
 1 3 l 1,45,-1
 2 3 l 1,46,-1
 2 4 l 1,47,-1
 1 4 l 1,44,-1
1 5 m 1,48,-1
 1 4 l 1,49,-1
 2 4 l 1,50,-1
 2 5 l 1,51,-1
 1 5 l 1,48,-1
1 6 m 1,52,-1
 1 5 l 1,53,-1
 2 5 l 1,54,-1
 2 6 l 1,55,-1
 1 6 l 1,52,-1
1 7 m 1,56,-1
 1 6 l 1,57,-1
 2 6 l 1,58,-1
 2 7 l 1,59,-1
 1 7 l 1,56,-1
EndSplineSet
Validated: 5
EndChar

StartChar: percent
Encoding: 37 37 38
Width: 3
GlyphClass: 2
Flags: W
LayerCount: 2
Fore
SplineSet
3 0 m 1,0,-1
 3 1 l 1,1,-1
 2 1 l 1,2,-1
 2 0 l 1,3,-1
 3 0 l 1,0,-1
2 5 m 1,4,-1
 2 7 l 1,5,-1
 3 7 l 1,6,-1
 3 5 l 1,7,-1
 2 5 l 1,4,-1
1 2 m 1,8,-1
 1 5 l 1,9,-1
 2 5 l 1,10,-1
 2 2 l 1,11,-1
 1 2 l 1,8,-1
0 0 m 1,12,-1
 0 2 l 1,13,-1
 1 2 l 1,14,-1
 1 0 l 1,15,-1
 0 0 l 1,12,-1
0 7 m 1,16,-1
 0 6 l 1,17,-1
 1 6 l 1,18,-1
 1 7 l 1,19,-1
 0 7 l 1,16,-1
EndSplineSet
Validated: 5
EndChar

StartChar: ampersand
Encoding: 38 38 39
Width: 4
GlyphClass: 2
Flags: W
LayerCount: 2
Fore
SplineSet
3 3 m 1,0,-1
 3 4 l 1,1,-1
 4 4 l 1,2,-1
 4 3 l 1,3,-1
 3 3 l 1,0,-1
3 2 m 1,4,-1
 3 3 l 1,5,-1
 2 3 l 1,6,-1
 2 2 l 1,7,-1
 3 2 l 1,4,-1
3 1 m 1,8,-1
 3 2 l 1,9,-1
 2 2 l 1,10,-1
 2 1 l 1,11,-1
 3 1 l 1,8,-1
2 1 m 1,12,-1
 2 0 l 1,13,-1
 3 0 l 1,14,-1
 3 1 l 1,15,-1
 2 1 l 1,12,-1
1 1 m 1,16,-1
 1 0 l 1,17,-1
 2 0 l 1,18,-1
 2 1 l 1,19,-1
 1 1 l 1,16,-1
0 2 m 1,20,-1
 0 1 l 1,21,-1
 1 1 l 1,22,-1
 1 2 l 1,23,-1
 0 2 l 1,20,-1
0 3 m 1,24,-1
 0 2 l 1,25,-1
 1 2 l 1,26,-1
 1 3 l 1,27,-1
 0 3 l 1,24,-1
0 4 m 1,28,-1
 0 3 l 1,29,-1
 1 3 l 1,30,-1
 1 4 l 1,31,-1
 0 4 l 1,28,-1
1 5 m 1,32,-1
 1 4 l 1,33,-1
 2 4 l 1,34,-1
 2 5 l 1,35,-1
 1 5 l 1,32,-1
0 5 m 1,36,-1
 0 4 l 1,37,-1
 1 4 l 1,38,-1
 1 5 l 1,39,-1
 0 5 l 1,36,-1
2 6 m 1,40,-1
 2 5 l 1,41,-1
 3 5 l 1,42,-1
 3 6 l 1,43,-1
 2 6 l 1,40,-1
2 7 m 1,44,-1
 2 6 l 1,45,-1
 3 6 l 1,46,-1
 3 7 l 1,47,-1
 2 7 l 1,44,-1
1 6 m 1,48,-1
 1 5 l 1,49,-1
 2 5 l 1,50,-1
 2 6 l 1,51,-1
 1 6 l 1,48,-1
1 7 m 1,52,-1
 1 6 l 1,53,-1
 2 6 l 1,54,-1
 2 7 l 1,55,-1
 1 7 l 1,52,-1
EndSplineSet
Validated: 5
EndChar

StartChar: quotesingle
Encoding: 39 39 40
Width: 3
GlyphClass: 2
Flags: W
LayerCount: 2
Fore
SplineSet
1 7 m 1,0,-1
 1 5 l 1,1,-1
 2 5 l 1,2,-1
 2 7 l 1,3,-1
 1 7 l 1,0,-1
EndSplineSet
Validated: 9
EndChar

StartChar: parenleft
Encoding: 40 40 41
Width: 3
GlyphClass: 2
Flags: W
LayerCount: 2
Fore
SplineSet
0 3 m 1,0,-1
 0 4 l 1,1,-1
 1 4 l 1,2,-1
 1 3 l 1,3,-1
 0 3 l 1,0,-1
1 2 m 1,4,-1
 1 3 l 1,5,-1
 0 3 l 1,6,-1
 0 2 l 1,7,-1
 1 2 l 1,4,-1
2 1 m 1,8,-1
 2 2 l 1,9,-1
 1 2 l 1,10,-1
 1 1 l 1,11,-1
 2 1 l 1,8,-1
3 0 m 1,12,-1
 3 1 l 1,13,-1
 2 1 l 1,14,-1
 2 0 l 1,15,-1
 3 0 l 1,12,-1
1 5 m 1,16,-1
 1 4 l 1,17,-1
 0 4 l 1,18,-1
 0 5 l 1,19,-1
 1 5 l 1,16,-1
2 6 m 1,20,-1
 2 5 l 1,21,-1
 1 5 l 1,22,-1
 1 6 l 1,23,-1
 2 6 l 1,20,-1
2 7 m 1,24,-1
 2 6 l 1,25,-1
 3 6 l 1,26,-1
 3 7 l 1,27,-1
 2 7 l 1,24,-1
EndSplineSet
Validated: 5
EndChar

StartChar: parenright
Encoding: 41 41 42
Width: 8
GlyphClass: 2
Flags: W
LayerCount: 2
Fore
SplineSet
1 1 m 1,0,-1
 1 0 l 1,1,-1
 0 0 l 1,2,-1
 0 1 l 1,3,-1
 1 1 l 1,0,-1
2 2 m 1,4,-1
 2 1 l 1,5,-1
 1 1 l 1,6,-1
 1 2 l 1,7,-1
 2 2 l 1,4,-1
2 3 m 1,8,-1
 2 2 l 1,9,-1
 3 2 l 1,10,-1
 3 3 l 1,11,-1
 2 3 l 1,8,-1
2 5 m 1,12,-1
 2 3 l 1,13,-1
 3 3 l 1,14,-1
 3 5 l 1,15,-1
 2 5 l 1,12,-1
1 6 m 1,16,-1
 1 5 l 1,17,-1
 2 5 l 1,18,-1
 2 6 l 1,19,-1
 1 6 l 1,16,-1
0 7 m 1,20,-1
 0 6 l 1,21,-1
 1 6 l 1,22,-1
 1 7 l 1,23,-1
 0 7 l 1,20,-1
EndSplineSet
Validated: 5
EndChar

StartChar: asterisk
Encoding: 42 42 43
Width: 5
GlyphClass: 2
Flags: W
LayerCount: 2
Fore
SplineSet
4 3 m 1,0,-1
 4 2 l 1,1,-1
 5 2 l 1,2,-1
 5 3 l 1,3,-1
 4 3 l 1,0,-1
2 3 m 1,4,-1
 2 2 l 1,5,-1
 3 2 l 1,6,-1
 3 3 l 1,7,-1
 2 3 l 1,4,-1
0 3 m 1,8,-1
 0 2 l 1,9,-1
 1 2 l 1,10,-1
 1 3 l 1,11,-1
 0 3 l 1,8,-1
3 4 m 1,12,-1
 3 3 l 1,13,-1
 4 3 l 1,14,-1
 4 4 l 1,15,-1
 3 4 l 1,12,-1
2 4 m 1,16,-1
 2 3 l 1,17,-1
 3 3 l 1,18,-1
 3 4 l 1,19,-1
 2 4 l 1,16,-1
1 4 m 1,20,-1
 1 3 l 1,21,-1
 2 3 l 1,22,-1
 2 4 l 1,23,-1
 1 4 l 1,20,-1
4 5 m 1,24,-1
 4 4 l 1,25,-1
 5 4 l 1,26,-1
 5 5 l 1,27,-1
 4 5 l 1,24,-1
3 5 m 1,28,-1
 3 4 l 1,29,-1
 4 4 l 1,30,-1
 4 5 l 1,31,-1
 3 5 l 1,28,-1
2 5 m 1,32,-1
 2 4 l 1,33,-1
 3 4 l 1,34,-1
 3 5 l 1,35,-1
 2 5 l 1,32,-1
1 5 m 1,36,-1
 1 4 l 1,37,-1
 2 4 l 1,38,-1
 2 5 l 1,39,-1
 1 5 l 1,36,-1
0 5 m 1,40,-1
 0 4 l 1,41,-1
 1 4 l 1,42,-1
 1 5 l 1,43,-1
 0 5 l 1,40,-1
3 6 m 1,44,-1
 3 5 l 1,45,-1
 4 5 l 1,46,-1
 4 6 l 1,47,-1
 3 6 l 1,44,-1
2 6 m 1,48,-1
 2 5 l 1,49,-1
 3 5 l 1,50,-1
 3 6 l 1,51,-1
 2 6 l 1,48,-1
1 6 m 1,52,-1
 1 5 l 1,53,-1
 2 5 l 1,54,-1
 2 6 l 1,55,-1
 1 6 l 1,52,-1
4 7 m 1,56,-1
 4 6 l 1,57,-1
 5 6 l 1,58,-1
 5 7 l 1,59,-1
 4 7 l 1,56,-1
2 7 m 1,60,-1
 2 6 l 1,61,-1
 3 6 l 1,62,-1
 3 7 l 1,63,-1
 2 7 l 1,60,-1
0 7 m 1,64,-1
 0 6 l 1,65,-1
 1 6 l 1,66,-1
 1 7 l 1,67,-1
 0 7 l 1,64,-1
EndSplineSet
Validated: 5
EndChar

StartChar: plus
Encoding: 43 43 44
Width: 5
GlyphClass: 2
Flags: W
LayerCount: 2
Fore
SplineSet
4 4 m 1,0,-1
 4 3 l 1,1,-1
 5 3 l 1,2,-1
 5 4 l 1,3,-1
 4 4 l 1,0,-1
0 4 m 1,4,-1
 0 3 l 1,5,-1
 1 3 l 1,6,-1
 1 4 l 1,7,-1
 0 4 l 1,4,-1
2 3 m 1,8,-1
 2 0 l 1,9,-1
 3 0 l 1,10,-1
 3 3 l 1,11,-1
 2 3 l 1,8,-1
3 4 m 1,12,-1
 3 3 l 1,13,-1
 4 3 l 1,14,-1
 4 4 l 1,15,-1
 3 4 l 1,12,-1
2 4 m 1,16,-1
 2 3 l 1,17,-1
 3 3 l 1,18,-1
 3 4 l 1,19,-1
 2 4 l 1,16,-1
1 4 m 1,20,-1
 1 3 l 1,21,-1
 2 3 l 1,22,-1
 2 4 l 1,23,-1
 1 4 l 1,20,-1
2 7 m 1,24,-1
 2 4 l 1,25,-1
 3 4 l 1,26,-1
 3 7 l 1,27,-1
 2 7 l 1,24,-1
EndSplineSet
Validated: 5
EndChar

StartChar: comma
Encoding: 44 44 45
Width: 3
GlyphClass: 2
Flags: W
LayerCount: 2
Fore
SplineSet
0 1 m 1,0,-1
 0 0 l 1,1,-1
 1 0 l 1,2,-1
 1 1 l 1,3,-1
 0 1 l 1,0,-1
1 2 m 1,4,-1
 1 1 l 1,5,-1
 2 1 l 1,6,-1
 2 2 l 1,7,-1
 1 2 l 1,4,-1
EndSplineSet
Validated: 5
EndChar

StartChar: hyphen
Encoding: 45 45 46
Width: 6
GlyphClass: 2
Flags: W
LayerCount: 2
Fore
SplineSet
0 4 m 1,0,-1
 0 3 l 1,1,-1
 5 3 l 1,2,-1
 5 4 l 1,3,-1
 0 4 l 1,0,-1
EndSplineSet
Validated: 1
EndChar

StartChar: period
Encoding: 46 46 47
Width: 3
GlyphClass: 2
Flags: W
LayerCount: 2
Fore
SplineSet
1 1 m 1,0,-1
 1 0 l 1,1,-1
 2 0 l 1,2,-1
 2 1 l 1,3,-1
 1 1 l 1,0,-1
EndSplineSet
Validated: 1
EndChar

StartChar: slash
Encoding: 47 47 48
Width: 8
GlyphClass: 2
Flags: W
LayerCount: 2
Fore
SplineSet
2 6 m 1,0,-1
 2 7 l 1,1,-1
 3 7 l 1,2,-1
 3 6 l 1,3,-1
 2 6 l 1,0,-1
2 5 m 1,4,-1
 2 6 l 1,5,-1
 3 6 l 1,6,-1
 3 5 l 1,7,-1
 2 5 l 1,4,-1
1 4 m 1,8,-1
 1 5 l 1,9,-1
 2 5 l 1,10,-1
 2 4 l 1,11,-1
 1 4 l 1,8,-1
1 3 m 1,12,-1
 1 4 l 1,13,-1
 2 4 l 1,14,-1
 2 3 l 1,15,-1
 1 3 l 1,12,-1
1 2 m 1,16,-1
 1 3 l 1,17,-1
 2 3 l 1,18,-1
 2 2 l 1,19,-1
 1 2 l 1,16,-1
1 1 m 1,20,-1
 1 2 l 1,21,-1
 0 2 l 1,22,-1
 0 1 l 1,23,-1
 1 1 l 1,20,-1
0 0 m 1,24,-1
 0 1 l 1,25,-1
 1 1 l 1,26,-1
 1 0 l 1,27,-1
 0 0 l 1,24,-1
EndSplineSet
Validated: 5
EndChar

StartChar: zero
Encoding: 48 48 49
Width: 4
GlyphClass: 2
Flags: W
LayerCount: 2
Fore
SplineSet
2 1 m 1,0,-1
 2 6 l 1,1,-1
 3 6 l 1,2,-1
 3 1 l 1,3,-1
 2 1 l 1,0,-1
1 1 m 1,4,-1
 1 0 l 1,5,-1
 2 0 l 1,6,-1
 2 1 l 1,7,-1
 1 1 l 1,4,-1
0 6 m 1,8,-1
 1 6 l 1,9,-1
 1 1 l 1,10,-1
 0 1 l 1,11,-1
 0 6 l 1,8,-1
1 7 m 1,12,-1
 1 6 l 1,13,-1
 2 6 l 1,14,-1
 2 7 l 1,15,-1
 1 7 l 1,12,-1
EndSplineSet
Validated: 5
EndChar

StartChar: one
Encoding: 49 49 50
Width: 2
GlyphClass: 2
Flags: W
LayerCount: 2
Fore
SplineSet
1 7 m 1,0,-1
 0 7 l 1,1,-1
 0 0 l 1,2,-1
 1 0 l 1,3,-1
 1 7 l 1,0,-1
EndSplineSet
Validated: 9
EndChar

StartChar: two
Encoding: 50 50 51
Width: 4
GlyphClass: 2
Flags: W
LayerCount: 2
Fore
SplineSet
0 1 m 1,0,-1
 0 0 l 1,1,-1
 3 0 l 1,2,-1
 3 1 l 1,3,-1
 0 1 l 1,0,-1
0 2 m 1,4,-1
 0 1 l 1,5,-1
 1 1 l 1,6,-1
 1 2 l 1,7,-1
 0 2 l 1,4,-1
0 3 m 1,8,-1
 0 2 l 1,9,-1
 1 2 l 1,10,-1
 1 3 l 1,11,-1
 0 3 l 1,8,-1
1 4 m 1,12,-1
 1 3 l 1,13,-1
 2 3 l 1,14,-1
 2 4 l 1,15,-1
 1 4 l 1,12,-1
2 5 m 1,16,-1
 2 4 l 1,17,-1
 3 4 l 1,18,-1
 3 5 l 1,19,-1
 2 5 l 1,16,-1
2 6 m 1,20,-1
 2 5 l 1,21,-1
 3 5 l 1,22,-1
 3 6 l 1,23,-1
 2 6 l 1,20,-1
1 7 m 1,24,-1
 1 6 l 1,25,-1
 2 6 l 1,26,-1
 2 7 l 1,27,-1
 1 7 l 1,24,-1
0 6 m 1,28,-1
 0 5 l 1,29,-1
 1 5 l 1,30,-1
 1 6 l 1,31,-1
 0 6 l 1,28,-1
EndSplineSet
Validated: 5
EndChar

StartChar: three
Encoding: 51 51 52
Width: 4
GlyphClass: 2
Flags: W
LayerCount: 2
Fore
SplineSet
1 1 m 1,0,-1
 1 2 l 1,1,-1
 0 2 l 1,2,-1
 0 1 l 1,3,-1
 1 1 l 1,0,-1
2 1 m 1,4,-1
 2 0 l 1,5,-1
 1 0 l 1,6,-1
 1 1 l 1,7,-1
 2 1 l 1,4,-1
2 2 m 1,8,-1
 2 1 l 1,9,-1
 3 1 l 1,10,-1
 3 2 l 1,11,-1
 2 2 l 1,8,-1
2 3 m 1,12,-1
 2 2 l 1,13,-1
 3 2 l 1,14,-1
 3 3 l 1,15,-1
 2 3 l 1,12,-1
2 4 m 1,16,-1
 2 3 l 1,17,-1
 1 3 l 1,18,-1
 1 4 l 1,19,-1
 2 4 l 1,16,-1
2 5 m 1,20,-1
 2 4 l 1,21,-1
 3 4 l 1,22,-1
 3 5 l 1,23,-1
 2 5 l 1,20,-1
2 6 m 1,24,-1
 2 5 l 1,25,-1
 3 5 l 1,26,-1
 3 6 l 1,27,-1
 2 6 l 1,24,-1
1 6 m 1,28,-1
 1 7 l 1,29,-1
 2 7 l 1,30,-1
 2 6 l 1,31,-1
 1 6 l 1,28,-1
0 6 m 1,32,-1
 0 5 l 1,33,-1
 1 5 l 1,34,-1
 1 6 l 1,35,-1
 0 6 l 1,32,-1
EndSplineSet
Validated: 5
EndChar

StartChar: four
Encoding: 52 52 53
Width: 4
GlyphClass: 2
Flags: W
LayerCount: 2
Fore
SplineSet
3 3 m 1,0,-1
 3 0 l 1,1,-1
 2 0 l 1,2,-1
 2 3 l 1,3,-1
 3 3 l 1,0,-1
3 4 m 1,4,-1
 3 3 l 1,5,-1
 2 3 l 1,6,-1
 2 4 l 1,7,-1
 3 4 l 1,4,-1
2 7 m 1,8,-1
 2 4 l 1,9,-1
 3 4 l 1,10,-1
 3 7 l 1,11,-1
 2 7 l 1,8,-1
1 3 m 1,12,-1
 1 4 l 1,13,-1
 2 4 l 1,14,-1
 2 3 l 1,15,-1
 1 3 l 1,12,-1
0 4 m 1,16,-1
 0 3 l 1,17,-1
 1 3 l 1,18,-1
 1 4 l 1,19,-1
 0 4 l 1,16,-1
0 7 m 1,20,-1
 0 4 l 1,21,-1
 1 4 l 1,22,-1
 1 7 l 1,23,-1
 0 7 l 1,20,-1
EndSplineSet
Validated: 5
EndChar

StartChar: five
Encoding: 53 53 54
Width: 4
GlyphClass: 2
Flags: W
LayerCount: 2
Fore
SplineSet
1 1 m 1,0,-1
 1 0 l 1,1,-1
 0 0 l 1,2,-1
 0 1 l 1,3,-1
 1 1 l 1,0,-1
2 1 m 1,4,-1
 2 0 l 1,5,-1
 1 0 l 1,6,-1
 1 1 l 1,7,-1
 2 1 l 1,4,-1
2 2 m 1,8,-1
 2 1 l 1,9,-1
 3 1 l 1,10,-1
 3 2 l 1,11,-1
 2 2 l 1,8,-1
2 3 m 1,12,-1
 2 2 l 1,13,-1
 3 2 l 1,14,-1
 3 3 l 1,15,-1
 2 3 l 1,12,-1
1 4 m 1,16,-1
 1 3 l 1,17,-1
 2 3 l 1,18,-1
 2 4 l 1,19,-1
 1 4 l 1,16,-1
0 4 m 1,20,-1
 0 3 l 1,21,-1
 1 3 l 1,22,-1
 1 4 l 1,23,-1
 0 4 l 1,20,-1
0 5 m 1,24,-1
 0 4 l 1,25,-1
 1 4 l 1,26,-1
 1 5 l 1,27,-1
 0 5 l 1,24,-1
0 6 m 1,28,-1
 0 5 l 1,29,-1
 1 5 l 1,30,-1
 1 6 l 1,31,-1
 0 6 l 1,28,-1
2 7 m 1,32,-1
 2 6 l 1,33,-1
 3 6 l 1,34,-1
 3 7 l 1,35,-1
 2 7 l 1,32,-1
1 7 m 1,36,-1
 1 6 l 1,37,-1
 2 6 l 1,38,-1
 2 7 l 1,39,-1
 1 7 l 1,36,-1
0 7 m 1,40,-1
 0 6 l 1,41,-1
 1 6 l 1,42,-1
 1 7 l 1,43,-1
 0 7 l 1,40,-1
EndSplineSet
Validated: 5
EndChar

StartChar: six
Encoding: 54 54 55
Width: 4
GlyphClass: 2
Flags: W
LayerCount: 2
Fore
SplineSet
2 0 m 1,0,-1
 2 1 l 1,1,-1
 1 1 l 1,2,-1
 1 0 l 1,3,-1
 2 0 l 1,0,-1
3 1 m 1,4,-1
 3 0 l 1,5,-1
 2 0 l 1,6,-1
 2 1 l 1,7,-1
 3 1 l 1,4,-1
2 2 m 1,8,-1
 2 1 l 1,9,-1
 3 1 l 1,10,-1
 3 2 l 1,11,-1
 2 2 l 1,8,-1
3 3 m 1,12,-1
 3 2 l 1,13,-1
 2 2 l 1,14,-1
 2 3 l 1,15,-1
 3 3 l 1,12,-1
2 4 m 1,16,-1
 2 3 l 1,17,-1
 3 3 l 1,18,-1
 3 4 l 1,19,-1
 2 4 l 1,16,-1
1 4 m 1,20,-1
 1 3 l 1,21,-1
 2 3 l 1,22,-1
 2 4 l 1,23,-1
 1 4 l 1,20,-1
1 4 m 1,24,-1
 1 3 l 1,25,-1
 1 4 l 1,24,-1
2 7 m 1,26,-1
 2 6 l 1,27,-1
 3 6 l 1,28,-1
 3 7 l 1,29,-1
 2 7 l 1,26,-1
1 7 m 1,30,-1
 1 6 l 1,31,-1
 2 6 l 1,32,-1
 2 7 l 1,33,-1
 1 7 l 1,30,-1
0 1 m 1,34,-1
 0 0 l 1,35,-1
 1 0 l 1,36,-1
 1 1 l 1,37,-1
 0 1 l 1,34,-1
1 2 m 1,38,-1
 1 1 l 1,39,-1
 0 1 l 1,40,-1
 0 2 l 1,41,-1
 1 2 l 1,38,-1
0 3 m 1,42,-1
 0 2 l 1,43,-1
 1 2 l 1,44,-1
 1 3 l 1,45,-1
 0 3 l 1,42,-1
1 4 m 1,46,-1
 1 3 l 1,47,-1
 0 3 l 1,48,-1
 0 4 l 1,49,-1
 1 4 l 1,46,-1
0 5 m 1,50,-1
 0 4 l 1,51,-1
 1 4 l 1,52,-1
 1 5 l 1,53,-1
 0 5 l 1,50,-1
1 6 m 1,54,-1
 1 5 l 1,55,-1
 0 5 l 1,56,-1
 0 6 l 1,57,-1
 1 6 l 1,54,-1
0 7 m 1,58,-1
 0 6 l 1,59,-1
 1 6 l 1,60,-1
 1 7 l 1,61,-1
 0 7 l 1,58,-1
EndSplineSet
Validated: 5
EndChar

StartChar: seven
Encoding: 55 55 56
Width: 4
GlyphClass: 2
Flags: W
LayerCount: 2
Fore
SplineSet
2 1 m 1,0,-1
 2 0 l 1,1,-1
 1 0 l 1,2,-1
 1 1 l 1,3,-1
 2 1 l 1,0,-1
2 2 m 1,4,-1
 2 1 l 1,5,-1
 1 1 l 1,6,-1
 1 2 l 1,7,-1
 2 2 l 1,4,-1
2 3 m 1,8,-1
 2 2 l 1,9,-1
 1 2 l 1,10,-1
 1 3 l 1,11,-1
 2 3 l 1,8,-1
2 4 m 1,12,-1
 2 3 l 1,13,-1
 1 3 l 1,14,-1
 1 4 l 1,15,-1
 2 4 l 1,12,-1
3 5 m 1,16,-1
 3 4 l 1,17,-1
 2 4 l 1,18,-1
 2 5 l 1,19,-1
 3 5 l 1,16,-1
3 6 m 1,20,-1
 3 5 l 1,21,-1
 2 5 l 1,22,-1
 2 6 l 1,23,-1
 3 6 l 1,20,-1
2 7 m 1,24,-1
 2 6 l 1,25,-1
 3 6 l 1,26,-1
 3 7 l 1,27,-1
 2 7 l 1,24,-1
1 7 m 1,28,-1
 1 6 l 1,29,-1
 2 6 l 1,30,-1
 2 7 l 1,31,-1
 1 7 l 1,28,-1
0 7 m 1,32,-1
 0 6 l 1,33,-1
 1 6 l 1,34,-1
 1 7 l 1,35,-1
 0 7 l 1,32,-1
EndSplineSet
Validated: 5
EndChar

StartChar: eight
Encoding: 56 56 57
Width: 4
GlyphClass: 2
Flags: W
LayerCount: 2
Fore
SplineSet
2 1 m 1,0,-1
 2 0 l 1,1,-1
 1 0 l 1,2,-1
 1 1 l 1,3,-1
 2 1 l 1,0,-1
2 2 m 1,4,-1
 2 1 l 1,5,-1
 3 1 l 1,6,-1
 3 2 l 1,7,-1
 2 2 l 1,4,-1
2 3 m 1,8,-1
 2 2 l 1,9,-1
 3 2 l 1,10,-1
 3 3 l 1,11,-1
 2 3 l 1,8,-1
1 6 m 1,12,-1
 1 7 l 1,13,-1
 2 7 l 1,14,-1
 2 6 l 1,15,-1
 1 6 l 1,12,-1
3 5 m 1,16,-1
 3 6 l 1,17,-1
 2 6 l 1,18,-1
 2 5 l 1,19,-1
 3 5 l 1,16,-1
2 4 m 1,20,-1
 2 5 l 1,21,-1
 3 5 l 1,22,-1
 3 4 l 1,23,-1
 2 4 l 1,20,-1
1 4 m 1,24,-1
 1 3 l 1,25,-1
 2 3 l 1,26,-1
 2 4 l 1,27,-1
 1 4 l 1,24,-1
0 5 m 1,28,-1
 0 4 l 1,29,-1
 1 4 l 1,30,-1
 1 5 l 1,31,-1
 0 5 l 1,28,-1
1 2 m 1,32,-1
 1 3 l 1,33,-1
 0 3 l 1,34,-1
 0 2 l 1,35,-1
 1 2 l 1,32,-1
0 1 m 1,36,-1
 0 2 l 1,37,-1
 1 2 l 1,38,-1
 1 1 l 1,39,-1
 0 1 l 1,36,-1
0 6 m 1,40,-1
 0 5 l 1,41,-1
 1 5 l 1,42,-1
 1 6 l 1,43,-1
 0 6 l 1,40,-1
EndSplineSet
Validated: 5
EndChar

StartChar: nine
Encoding: 57 57 58
Width: 4
GlyphClass: 2
Flags: W
LayerCount: 2
Fore
SplineSet
1 0 m 1,0,-1
 1 1 l 1,1,-1
 0 1 l 1,2,-1
 0 0 l 1,3,-1
 1 0 l 1,0,-1
2 0 m 1,4,-1
 2 1 l 1,5,-1
 1 1 l 1,6,-1
 1 0 l 1,7,-1
 2 0 l 1,4,-1
3 1 m 1,8,-1
 3 0 l 1,9,-1
 2 0 l 1,10,-1
 2 1 l 1,11,-1
 3 1 l 1,8,-1
3 2 m 1,12,-1
 3 1 l 1,13,-1
 2 1 l 1,14,-1
 2 2 l 1,15,-1
 3 2 l 1,12,-1
3 3 m 1,16,-1
 3 2 l 1,17,-1
 2 2 l 1,18,-1
 2 3 l 1,19,-1
 3 3 l 1,16,-1
2 4 m 1,20,-1
 2 3 l 1,21,-1
 3 3 l 1,22,-1
 3 4 l 1,23,-1
 2 4 l 1,20,-1
1 4 m 1,24,-1
 1 3 l 1,25,-1
 2 3 l 1,26,-1
 2 4 l 1,27,-1
 1 4 l 1,24,-1
0 4 m 1,28,-1
 0 3 l 1,29,-1
 1 3 l 1,30,-1
 1 4 l 1,31,-1
 0 4 l 1,28,-1
2 5 m 1,32,-1
 2 4 l 1,33,-1
 3 4 l 1,34,-1
 3 5 l 1,35,-1
 2 5 l 1,32,-1
2 6 m 1,36,-1
 2 5 l 1,37,-1
 3 5 l 1,38,-1
 3 6 l 1,39,-1
 2 6 l 1,36,-1
0 5 m 1,40,-1
 0 4 l 1,41,-1
 1 4 l 1,42,-1
 1 5 l 1,43,-1
 0 5 l 1,40,-1
0 6 m 1,44,-1
 0 5 l 1,45,-1
 1 5 l 1,46,-1
 1 6 l 1,47,-1
 0 6 l 1,44,-1
2 7 m 1,48,-1
 2 6 l 1,49,-1
 3 6 l 1,50,-1
 3 7 l 1,51,-1
 2 7 l 1,48,-1
1 7 m 1,52,-1
 1 6 l 1,53,-1
 2 6 l 1,54,-1
 2 7 l 1,55,-1
 1 7 l 1,52,-1
0 7 m 1,56,-1
 0 6 l 1,57,-1
 1 6 l 1,58,-1
 1 7 l 1,59,-1
 0 7 l 1,56,-1
EndSplineSet
Validated: 5
EndChar

StartChar: colon
Encoding: 58 58 59
Width: 3
GlyphClass: 2
Flags: W
LayerCount: 2
Fore
SplineSet
1 2 m 1,0,-1
 1 1 l 1,1,-1
 2 1 l 1,2,-1
 2 2 l 1,3,-1
 1 2 l 1,0,-1
1 5 m 1,4,-1
 1 4 l 1,5,-1
 2 4 l 1,6,-1
 2 5 l 1,7,-1
 1 5 l 1,4,-1
EndSplineSet
Validated: 1
EndChar

StartChar: semicolon
Encoding: 59 59 60
Width: 3
GlyphClass: 2
Flags: W
LayerCount: 2
Fore
SplineSet
1 5 m 1,0,-1
 1 4 l 1,1,-1
 2 4 l 1,2,-1
 2 5 l 1,3,-1
 1 5 l 1,0,-1
1 1 m 1,4,-1
 1 2 l 1,5,-1
 2 2 l 1,6,-1
 2 1 l 1,7,-1
 1 1 l 1,4,-1
0 0 m 1,8,-1
 0 1 l 1,9,-1
 1 1 l 1,10,-1
 1 0 l 1,11,-1
 0 0 l 1,8,-1
EndSplineSet
Validated: 5
EndChar

StartChar: less
Encoding: 60 60 61
Width: 3
GlyphClass: 2
Flags: W
LayerCount: 2
Fore
SplineSet
2 2 m 1,0,-1
 2 1 l 1,1,-1
 3 1 l 1,2,-1
 3 2 l 1,3,-1
 2 2 l 1,0,-1
2 5 m 1,4,-1
 2 6 l 1,5,-1
 3 6 l 1,6,-1
 3 5 l 1,7,-1
 2 5 l 1,4,-1
1 3 m 1,8,-1
 1 2 l 1,9,-1
 2 2 l 1,10,-1
 2 3 l 1,11,-1
 1 3 l 1,8,-1
1 4 m 1,12,-1
 1 5 l 1,13,-1
 2 5 l 1,14,-1
 2 4 l 1,15,-1
 1 4 l 1,12,-1
0 4 m 1,16,-1
 0 3 l 1,17,-1
 1 3 l 1,18,-1
 1 4 l 1,19,-1
 0 4 l 1,16,-1
EndSplineSet
Validated: 5
EndChar

StartChar: equal
Encoding: 61 61 62
Width: 5
GlyphClass: 2
Flags: W
LayerCount: 2
Fore
SplineSet
0 2 m 1,0,-1
 0 1 l 1,1,-1
 5 1 l 1,2,-1
 5 2 l 1,3,-1
 0 2 l 1,0,-1
0 4 m 1,4,-1
 0 3 l 1,5,-1
 5 3 l 1,6,-1
 5 4 l 1,7,-1
 0 4 l 1,4,-1
EndSplineSet
Validated: 1
EndChar

StartChar: greater
Encoding: 62 62 63
Width: 3
GlyphClass: 2
Flags: W
LayerCount: 2
Fore
SplineSet
1 2 m 1,0,-1
 1 1 l 1,1,-1
 0 1 l 1,2,-1
 0 2 l 1,3,-1
 1 2 l 1,0,-1
2 3 m 1,4,-1
 2 2 l 1,5,-1
 1 2 l 1,6,-1
 1 3 l 1,7,-1
 2 3 l 1,4,-1
1 5 m 1,8,-1
 1 6 l 1,9,-1
 0 6 l 1,10,-1
 0 5 l 1,11,-1
 1 5 l 1,8,-1
2 4 m 1,12,-1
 2 5 l 1,13,-1
 1 5 l 1,14,-1
 1 4 l 1,15,-1
 2 4 l 1,12,-1
2 4 m 1,16,-1
 2 3 l 1,17,-1
 3 3 l 1,18,-1
 3 4 l 1,19,-1
 2 4 l 1,16,-1
EndSplineSet
Validated: 5
EndChar

StartChar: question
Encoding: 63 63 64
Width: 3
GlyphClass: 2
Flags: W
LayerCount: 2
Fore
SplineSet
1 1 m 1,0,-1
 1 0 l 1,1,-1
 2 0 l 1,2,-1
 2 1 l 1,3,-1
 1 1 l 1,0,-1
1 3 m 1,4,-1
 1 2 l 1,5,-1
 2 2 l 1,6,-1
 2 3 l 1,7,-1
 1 3 l 1,4,-1
1 4 m 1,8,-1
 1 3 l 1,9,-1
 2 3 l 1,10,-1
 2 4 l 1,11,-1
 1 4 l 1,8,-1
2 4 m 1,12,-1
 2 3 l 1,13,-1
 3 3 l 1,14,-1
 3 4 l 1,15,-1
 2 4 l 1,12,-1
2 5 m 1,16,-1
 2 4 l 1,17,-1
 3 4 l 1,18,-1
 3 5 l 1,19,-1
 2 5 l 1,16,-1
2 6 m 1,20,-1
 2 5 l 1,21,-1
 3 5 l 1,22,-1
 3 6 l 1,23,-1
 2 6 l 1,20,-1
0 6 m 1,24,-1
 0 5 l 1,25,-1
 1 5 l 1,26,-1
 1 6 l 1,27,-1
 0 6 l 1,24,-1
2 7 m 1,28,-1
 2 6 l 1,29,-1
 3 6 l 1,30,-1
 3 7 l 1,31,-1
 2 7 l 1,28,-1
1 7 m 1,32,-1
 1 6 l 1,33,-1
 2 6 l 1,34,-1
 2 7 l 1,35,-1
 1 7 l 1,32,-1
0 7 m 1,36,-1
 0 6 l 1,37,-1
 1 6 l 1,38,-1
 1 7 l 1,39,-1
 0 7 l 1,36,-1
EndSplineSet
Validated: 5
EndChar

StartChar: at
Encoding: 64 64 65
Width: 4
GlyphClass: 2
Flags: W
LayerCount: 2
Fore
SplineSet
3 4 m 1,0,-1
 3 5 l 1,1,-1
 4 5 l 1,2,-1
 4 4 l 1,3,-1
 3 4 l 1,0,-1
2 4 m 1,4,-1
 2 5 l 1,5,-1
 3 5 l 1,6,-1
 3 4 l 1,7,-1
 2 4 l 1,4,-1
3 7 m 1,8,-1
 3 6 l 1,9,-1
 4 6 l 1,10,-1
 4 7 l 1,11,-1
 3 7 l 1,8,-1
2 7 m 1,12,-1
 2 6 l 1,13,-1
 3 6 l 1,14,-1
 3 7 l 1,15,-1
 2 7 l 1,12,-1
1 7 m 1,16,-1
 1 6 l 1,17,-1
 2 6 l 1,18,-1
 2 7 l 1,19,-1
 1 7 l 1,16,-1
2 3 m 1,20,-1
 2 2 l 1,21,-1
 3 2 l 1,22,-1
 3 3 l 1,23,-1
 2 3 l 1,20,-1
3 4 m 1,24,-1
 3 3 l 1,25,-1
 2 3 l 1,26,-1
 2 4 l 1,27,-1
 3 4 l 1,24,-1
4 3 m 1,28,-1
 4 4 l 1,29,-1
 3 4 l 1,30,-1
 3 3 l 1,31,-1
 4 3 l 1,28,-1
3 2 m 1,32,-1
 3 3 l 1,33,-1
 4 3 l 1,34,-1
 4 2 l 1,35,-1
 3 2 l 1,32,-1
4 1 m 1,36,-1
 4 2 l 1,37,-1
 3 2 l 1,38,-1
 3 1 l 1,39,-1
 4 1 l 1,36,-1
3 0 m 1,40,-1
 3 1 l 1,41,-1
 4 1 l 1,42,-1
 4 0 l 1,43,-1
 3 0 l 1,40,-1
3 1 m 1,44,-1
 3 0 l 1,45,-1
 3 1 l 1,44,-1
2 0 m 1,46,-1
 2 1 l 1,47,-1
 3 1 l 1,48,-1
 3 0 l 1,49,-1
 2 0 l 1,46,-1
1 0 m 1,50,-1
 1 1 l 1,51,-1
 2 1 l 1,52,-1
 2 0 l 1,53,-1
 1 0 l 1,50,-1
0 1 m 1,54,-1
 0 0 l 1,55,-1
 1 0 l 1,56,-1
 1 1 l 1,57,-1
 0 1 l 1,54,-1
0 2 m 1,58,-1
 0 1 l 1,59,-1
 1 1 l 1,60,-1
 1 2 l 1,61,-1
 0 2 l 1,58,-1
0 3 m 1,62,-1
 0 2 l 1,63,-1
 1 2 l 1,64,-1
 1 3 l 1,65,-1
 0 3 l 1,62,-1
0 4 m 1,66,-1
 0 3 l 1,67,-1
 1 3 l 1,68,-1
 1 4 l 1,69,-1
 0 4 l 1,66,-1
0 5 m 1,70,-1
 0 4 l 1,71,-1
 1 4 l 1,72,-1
 1 5 l 1,73,-1
 0 5 l 1,70,-1
0 6 m 1,74,-1
 0 5 l 1,75,-1
 1 5 l 1,76,-1
 1 6 l 1,77,-1
 0 6 l 1,74,-1
0 7 m 1,78,-1
 0 6 l 1,79,-1
 1 6 l 1,80,-1
 1 7 l 1,81,-1
 0 7 l 1,78,-1
EndSplineSet
Validated: 5
EndChar

StartChar: A
Encoding: 65 65 66
Width: 4
GlyphClass: 2
Flags: W
LayerCount: 2
Fore
SplineSet
2 7 m 1,0,-1
 2 6 l 1,1,-1
 3 6 l 1,2,-1
 3 7 l 1,3,-1
 2 7 l 1,0,-1
0 7 m 1,4,-1
 0 6 l 1,5,-1
 1 6 l 1,6,-1
 1 7 l 1,7,-1
 0 7 l 1,4,-1
1 4 m 1,8,-1
 1 3 l 1,9,-1
 2 3 l 1,10,-1
 2 4 l 1,11,-1
 1 4 l 1,8,-1
2 6 m 1,12,-1
 3 6 l 1,13,-1
 3 0 l 1,14,-1
 2 0 l 1,15,-1
 2 6 l 1,12,-1
1 6 m 1,16,-1
 1 7 l 1,17,-1
 2 7 l 1,18,-1
 2 6 l 1,19,-1
 1 6 l 1,16,-1
0 6 m 1,20,-1
 1 6 l 1,21,-1
 1 0 l 1,22,-1
 0 0 l 1,23,-1
 0 6 l 1,20,-1
EndSplineSet
Validated: 5
EndChar

StartChar: B
Encoding: 66 66 67
Width: 4
GlyphClass: 2
Flags: W
LayerCount: 2
Fore
SplineSet
2 6 m 1,0,-1
 2 7 l 1,1,-1
 1 7 l 1,2,-1
 1 6 l 1,3,-1
 2 6 l 1,0,-1
2 4 m 1,4,-1
 2 6 l 1,5,-1
 3 6 l 1,6,-1
 3 4 l 1,7,-1
 2 4 l 1,4,-1
2 3 m 1,8,-1
 2 4 l 1,9,-1
 1 4 l 1,10,-1
 1 3 l 1,11,-1
 2 3 l 1,8,-1
2 1 m 1,12,-1
 2 3 l 1,13,-1
 3 3 l 1,14,-1
 3 1 l 1,15,-1
 2 1 l 1,12,-1
1 0 m 1,16,-1
 1 1 l 1,17,-1
 2 1 l 1,18,-1
 2 0 l 1,19,-1
 1 0 l 1,16,-1
0 7 m 1,20,-1
 1 7 l 1,21,-1
 1 0 l 1,22,-1
 0 0 l 1,23,-1
 0 7 l 1,20,-1
EndSplineSet
Validated: 5
EndChar

StartChar: C
Encoding: 67 67 68
Width: 4
GlyphClass: 2
Flags: W
LayerCount: 2
Fore
SplineSet
1 6 m 1,0,-1
 1 7 l 1,1,-1
 3 7 l 1,2,-1
 3 6 l 1,3,-1
 1 6 l 1,0,-1
1 1 m 1,4,-1
 1 0 l 1,5,-1
 3 0 l 1,6,-1
 3 1 l 1,7,-1
 1 1 l 1,4,-1
0 6 m 1,8,-1
 1 6 l 1,9,-1
 1 1 l 1,10,-1
 0 1 l 1,11,-1
 0 6 l 1,8,-1
EndSplineSet
Validated: 5
EndChar

StartChar: D
Encoding: 68 68 69
Width: 4
GlyphClass: 2
Flags: W
LayerCount: 2
Fore
SplineSet
2 6 m 1,0,-1
 2 7 l 1,1,-1
 1 7 l 1,2,-1
 1 6 l 1,3,-1
 2 6 l 1,0,-1
2 1 m 1,4,-1
 2 6 l 1,5,-1
 3 6 l 1,6,-1
 3 1 l 1,7,-1
 2 1 l 1,4,-1
1 0 m 1,8,-1
 1 1 l 1,9,-1
 2 1 l 1,10,-1
 2 0 l 1,11,-1
 1 0 l 1,8,-1
0 7 m 1,12,-1
 1 7 l 1,13,-1
 1 0 l 1,14,-1
 0 0 l 1,15,-1
 0 7 l 1,12,-1
EndSplineSet
Validated: 5
EndChar

StartChar: E
Encoding: 69 69 70
Width: 4
GlyphClass: 2
Flags: W
LayerCount: 2
Fore
SplineSet
1 7 m 1,0,-1
 1 6 l 1,1,-1
 3 6 l 1,2,-1
 3 7 l 1,3,-1
 1 7 l 1,0,-1
1 3 m 1,4,-1
 1 4 l 1,5,-1
 2 4 l 1,6,-1
 2 3 l 1,7,-1
 1 3 l 1,4,-1
1 0 m 1,8,-1
 1 1 l 1,9,-1
 3 1 l 1,10,-1
 3 0 l 1,11,-1
 1 0 l 1,8,-1
0 7 m 1,12,-1
 1 7 l 1,13,-1
 1 0 l 1,14,-1
 0 0 l 1,15,-1
 0 7 l 1,12,-1
EndSplineSet
Validated: 5
EndChar

StartChar: F
Encoding: 70 70 71
Width: 4
GlyphClass: 2
Flags: W
LayerCount: 2
Fore
SplineSet
1 4 m 1,0,-1
 1 3 l 1,1,-1
 2 3 l 1,2,-1
 2 4 l 1,3,-1
 1 4 l 1,0,-1
1 7 m 1,4,-1
 1 6 l 1,5,-1
 3 6 l 1,6,-1
 3 7 l 1,7,-1
 1 7 l 1,4,-1
0 7 m 1,8,-1
 1 7 l 1,9,-1
 1 0 l 1,10,-1
 0 0 l 1,11,-1
 0 7 l 1,8,-1
EndSplineSet
Validated: 5
EndChar

StartChar: G
Encoding: 71 71 72
Width: 4
GlyphClass: 2
Flags: W
LayerCount: 2
Fore
SplineSet
2 2 m 1,0,-1
 2 3 l 1,1,-1
 3 3 l 1,2,-1
 3 2 l 1,3,-1
 2 2 l 1,0,-1
1 7 m 1,4,-1
 1 6 l 1,5,-1
 3 6 l 1,6,-1
 3 7 l 1,7,-1
 1 7 l 1,4,-1
3 1 m 1,8,-1
 3 2 l 1,9,-1
 2 2 l 1,10,-1
 2 1 l 1,11,-1
 3 1 l 1,8,-1
1 0 m 1,12,-1
 1 1 l 1,13,-1
 3 1 l 1,14,-1
 3 0 l 1,15,-1
 1 0 l 1,12,-1
0 7 m 1,16,-1
 1 7 l 1,17,-1
 1 0 l 1,18,-1
 0 0 l 1,19,-1
 0 7 l 1,16,-1
EndSplineSet
Validated: 5
EndChar

StartChar: H
Encoding: 72 72 73
Width: 4
GlyphClass: 2
Flags: W
LayerCount: 2
Fore
SplineSet
2 7 m 1,0,-1
 3 7 l 1,1,-1
 3 0 l 1,2,-1
 2 0 l 1,3,-1
 2 7 l 1,0,-1
1 4 m 1,4,-1
 1 3 l 1,5,-1
 2 3 l 1,6,-1
 2 4 l 1,7,-1
 1 4 l 1,4,-1
0 7 m 1,8,-1
 1 7 l 1,9,-1
 1 0 l 1,10,-1
 0 0 l 1,11,-1
 0 7 l 1,8,-1
EndSplineSet
Validated: 5
EndChar

StartChar: I
Encoding: 73 73 74
Width: 2
GlyphClass: 2
Flags: W
LayerCount: 2
Fore
SplineSet
0 7 m 1,0,-1
 1 7 l 1,1,-1
 1 0 l 1,2,-1
 0 0 l 1,3,-1
 0 7 l 1,0,-1
EndSplineSet
Validated: 1
EndChar

StartChar: J
Encoding: 74 74 75
Width: 4
GlyphClass: 2
Flags: W
LayerCount: 2
Fore
SplineSet
2 1 m 1,0,-1
 2 7 l 1,1,-1
 3 7 l 1,2,-1
 3 1 l 1,3,-1
 2 1 l 1,0,-1
1 1 m 1,4,-1
 1 0 l 1,5,-1
 2 0 l 1,6,-1
 2 1 l 1,7,-1
 1 1 l 1,4,-1
0 0 m 1,8,-1
 0 1 l 1,9,-1
 1 1 l 1,10,-1
 1 0 l 1,11,-1
 0 0 l 1,8,-1
EndSplineSet
Validated: 5
EndChar

StartChar: K
Encoding: 75 75 76
Width: 4
GlyphClass: 2
Flags: W
LayerCount: 2
Fore
SplineSet
2 4 m 1,0,-1
 2 7 l 1,1,-1
 3 7 l 1,2,-1
 3 4 l 1,3,-1
 2 4 l 1,0,-1
2 3 m 1,4,-1
 2 0 l 1,5,-1
 3 0 l 1,6,-1
 3 3 l 1,7,-1
 2 3 l 1,4,-1
1 4 m 1,8,-1
 1 3 l 1,9,-1
 2 3 l 1,10,-1
 2 4 l 1,11,-1
 1 4 l 1,8,-1
0 7 m 1,12,-1
 1 7 l 1,13,-1
 1 0 l 1,14,-1
 0 0 l 1,15,-1
 0 7 l 1,12,-1
EndSplineSet
Validated: 5
EndChar

StartChar: L
Encoding: 76 76 77
Width: 4
GlyphClass: 2
Flags: W
LayerCount: 2
Fore
SplineSet
1 0 m 1,0,-1
 1 1 l 1,1,-1
 3 1 l 1,2,-1
 3 0 l 1,3,-1
 1 0 l 1,0,-1
0 7 m 1,4,-1
 1 7 l 1,5,-1
 1 0 l 1,6,-1
 0 0 l 1,7,-1
 0 7 l 1,4,-1
EndSplineSet
Validated: 5
EndChar

StartChar: M
Encoding: 77 77 78
Width: 6
GlyphClass: 2
Flags: W
LayerCount: 2
Fore
SplineSet
4 7 m 1,0,-1
 5 7 l 1,1,-1
 5 0 l 1,2,-1
 4 0 l 1,3,-1
 4 7 l 1,0,-1
3 7 m 1,4,-1
 3 6 l 1,5,-1
 4 6 l 1,6,-1
 4 7 l 1,7,-1
 3 7 l 1,4,-1
2 7 m 1,8,-1
 3 7 l 1,9,-1
 3 3 l 1,10,-1
 2 3 l 1,11,-1
 2 7 l 1,8,-1
1 7 m 1,12,-1
 1 6 l 1,13,-1
 2 6 l 1,14,-1
 2 7 l 1,15,-1
 1 7 l 1,12,-1
0 7 m 1,16,-1
 1 7 l 1,17,-1
 1 0 l 1,18,-1
 0 0 l 1,19,-1
 0 7 l 1,16,-1
EndSplineSet
Validated: 5
EndChar

StartChar: N
Encoding: 78 78 79
Width: 4
GlyphClass: 2
Flags: W
LayerCount: 2
Fore
SplineSet
3 6 m 1,0,-1
 3 0 l 1,1,-1
 2 0 l 1,2,-1
 2 6 l 1,3,-1
 3 6 l 1,0,-1
1 7 m 1,4,-1
 1 6 l 1,5,-1
 3 6 l 1,6,-1
 3 7 l 1,7,-1
 1 7 l 1,4,-1
0 7 m 1,8,-1
 1 7 l 1,9,-1
 1 0 l 1,10,-1
 0 0 l 1,11,-1
 0 7 l 1,8,-1
EndSplineSet
Validated: 5
EndChar

StartChar: O
Encoding: 79 79 80
Width: 4
GlyphClass: 2
Flags: W
LayerCount: 2
Fore
SplineSet
2 7 m 1,0,-1
 2 6 l 1,1,-1
 1 6 l 1,2,-1
 1 7 l 1,3,-1
 2 7 l 1,0,-1
2 0 m 1,4,-1
 2 7 l 1,5,-1
 3 7 l 1,6,-1
 3 0 l 1,7,-1
 2 0 l 1,4,-1
1 0 m 1,8,-1
 1 1 l 1,9,-1
 2 1 l 1,10,-1
 2 0 l 1,11,-1
 1 0 l 1,8,-1
0 7 m 1,12,-1
 1 7 l 1,13,-1
 1 0 l 1,14,-1
 0 0 l 1,15,-1
 0 7 l 1,12,-1
EndSplineSet
Validated: 5
EndChar

StartChar: P
Encoding: 80 80 81
Width: 4
GlyphClass: 2
Flags: W
LayerCount: 2
Fore
SplineSet
2 4 m 1,0,-1
 2 5 l 1,1,-1
 1 5 l 1,2,-1
 1 4 l 1,3,-1
 2 4 l 1,0,-1
3 6 m 1,4,-1
 3 4 l 1,5,-1
 2 4 l 1,6,-1
 2 6 l 1,7,-1
 3 6 l 1,4,-1
1 7 m 1,8,-1
 1 6 l 1,9,-1
 3 6 l 1,10,-1
 3 7 l 1,11,-1
 1 7 l 1,8,-1
0 7 m 1,12,-1
 1 7 l 1,13,-1
 1 0 l 1,14,-1
 0 0 l 1,15,-1
 0 7 l 1,12,-1
EndSplineSet
Validated: 5
EndChar

StartChar: Q
Encoding: 81 81 82
Width: 4
GlyphClass: 2
Flags: W
LayerCount: 2
Fore
SplineSet
0 4 m 1,0,-1
 0 3 l 1,1,-1
 2 3 l 1,2,-1
 2 4 l 1,3,-1
 0 4 l 1,0,-1
0 6 m 1,4,-1
 0 4 l 1,5,-1
 1 4 l 1,6,-1
 1 6 l 1,7,-1
 0 6 l 1,4,-1
3 6 m 1,8,-1
 3 0 l 1,9,-1
 2 0 l 1,10,-1
 2 6 l 1,11,-1
 3 6 l 1,8,-1
0 7 m 1,12,-1
 0 6 l 1,13,-1
 3 6 l 1,14,-1
 3 7 l 1,15,-1
 0 7 l 1,12,-1
EndSplineSet
Validated: 5
EndChar

StartChar: R
Encoding: 82 82 83
Width: 4
GlyphClass: 2
Flags: W
LayerCount: 2
Fore
SplineSet
2 3 m 1,0,-1
 2 0 l 1,1,-1
 3 0 l 1,2,-1
 3 3 l 1,3,-1
 2 3 l 1,0,-1
1 4 m 1,4,-1
 1 3 l 1,5,-1
 2 3 l 1,6,-1
 2 4 l 1,7,-1
 1 4 l 1,4,-1
3 6 m 1,8,-1
 3 4 l 1,9,-1
 2 4 l 1,10,-1
 2 6 l 1,11,-1
 3 6 l 1,8,-1
1 7 m 1,12,-1
 1 6 l 1,13,-1
 3 6 l 1,14,-1
 3 7 l 1,15,-1
 1 7 l 1,12,-1
0 7 m 1,16,-1
 1 7 l 1,17,-1
 1 0 l 1,18,-1
 0 0 l 1,19,-1
 0 7 l 1,16,-1
EndSplineSet
Validated: 5
EndChar

StartChar: S
Encoding: 83 83 84
Width: 4
GlyphClass: 2
Flags: W
LayerCount: 2
Fore
SplineSet
2 0 m 1,0,-1
 2 1 l 1,1,-1
 0 1 l 1,2,-1
 0 0 l 1,3,-1
 2 0 l 1,0,-1
3 3 m 1,4,-1
 3 0 l 1,5,-1
 2 0 l 1,6,-1
 2 3 l 1,7,-1
 3 3 l 1,4,-1
0 4 m 1,8,-1
 0 3 l 1,9,-1
 3 3 l 1,10,-1
 3 4 l 1,11,-1
 0 4 l 1,8,-1
0 6 m 1,12,-1
 0 4 l 1,13,-1
 1 4 l 1,14,-1
 1 6 l 1,15,-1
 0 6 l 1,12,-1
0 7 m 1,16,-1
 0 6 l 1,17,-1
 3 6 l 1,18,-1
 3 7 l 1,19,-1
 0 7 l 1,16,-1
EndSplineSet
Validated: 5
EndChar

StartChar: T
Encoding: 84 84 85
Width: 4
GlyphClass: 2
Flags: W
LayerCount: 2
Fore
SplineSet
1 6 m 1,0,-1
 2 6 l 1,1,-1
 2 0 l 1,2,-1
 1 0 l 1,3,-1
 1 6 l 1,0,-1
0 7 m 1,4,-1
 0 6 l 1,5,-1
 3 6 l 1,6,-1
 3 7 l 1,7,-1
 0 7 l 1,4,-1
EndSplineSet
Validated: 5
EndChar

StartChar: U
Encoding: 85 85 86
Width: 4
GlyphClass: 2
Flags: W
LayerCount: 2
Fore
SplineSet
3 1 m 1,0,-1
 2 1 l 1,1,-1
 2 7 l 1,2,-1
 3 7 l 1,3,-1
 3 1 l 1,0,-1
1 0 m 1,4,-1
 1 1 l 1,5,-1
 3 1 l 1,6,-1
 3 0 l 1,7,-1
 1 0 l 1,4,-1
0 7 m 1,8,-1
 1 7 l 1,9,-1
 1 0 l 1,10,-1
 0 0 l 1,11,-1
 0 7 l 1,8,-1
EndSplineSet
Validated: 5
EndChar

StartChar: V
Encoding: 86 86 87
Width: 4
GlyphClass: 2
Flags: W
LayerCount: 2
Fore
SplineSet
2 2 m 1,0,-1
 2 7 l 1,1,-1
 3 7 l 1,2,-1
 3 2 l 1,3,-1
 2 2 l 1,0,-1
1 2 m 1,4,-1
 1 0 l 1,5,-1
 2 0 l 1,6,-1
 2 2 l 1,7,-1
 1 2 l 1,4,-1
0 3 m 1,8,-1
 0 2 l 1,9,-1
 1 2 l 1,10,-1
 1 3 l 1,11,-1
 0 3 l 1,8,-1
0 7 m 1,12,-1
 1 7 l 1,13,-1
 1 3 l 1,14,-1
 0 3 l 1,15,-1
 0 7 l 1,12,-1
EndSplineSet
Validated: 5
EndChar

StartChar: W
Encoding: 87 87 88
Width: 6
GlyphClass: 2
Flags: W
LayerCount: 2
Fore
SplineSet
4 7 m 1,0,-1
 5 7 l 1,1,-1
 5 1 l 1,2,-1
 4 1 l 1,3,-1
 4 7 l 1,0,-1
2 1 m 1,4,-1
 2 7 l 1,5,-1
 3 7 l 1,6,-1
 3 1 l 1,7,-1
 2 1 l 1,4,-1
1 0 m 1,8,-1
 1 1 l 1,9,-1
 5 1 l 1,10,-1
 5 0 l 1,11,-1
 1 0 l 1,8,-1
0 7 m 1,12,-1
 1 7 l 1,13,-1
 1 0 l 1,14,-1
 0 0 l 1,15,-1
 0 7 l 1,12,-1
EndSplineSet
Validated: 5
EndChar

StartChar: X
Encoding: 88 88 89
Width: 4
GlyphClass: 2
Flags: W
LayerCount: 2
Fore
SplineSet
2 5 m 1,0,-1
 2 7 l 1,1,-1
 3 7 l 1,2,-1
 3 5 l 1,3,-1
 2 5 l 1,0,-1
2 2 m 1,4,-1
 2 0 l 1,5,-1
 3 0 l 1,6,-1
 3 2 l 1,7,-1
 2 2 l 1,4,-1
1 3 m 1,8,-1
 1 2 l 1,9,-1
 2 2 l 1,10,-1
 2 3 l 1,11,-1
 1 3 l 1,8,-1
0 0 m 1,12,-1
 0 2 l 1,13,-1
 1 2 l 1,14,-1
 1 0 l 1,15,-1
 0 0 l 1,12,-1
1 5 m 1,16,-1
 1 3 l 1,17,-1
 2 3 l 1,18,-1
 2 5 l 1,19,-1
 1 5 l 1,16,-1
0 7 m 1,20,-1
 0 5 l 1,21,-1
 1 5 l 1,22,-1
 1 7 l 1,23,-1
 0 7 l 1,20,-1
EndSplineSet
Validated: 5
EndChar

StartChar: Y
Encoding: 89 89 90
Width: 4
GlyphClass: 2
Flags: W
LayerCount: 2
Fore
SplineSet
3 4 m 1,0,-1
 3 7 l 1,1,-1
 2 7 l 1,2,-1
 2 4 l 1,3,-1
 3 4 l 1,0,-1
2 0 m 1,4,-1
 2 1 l 1,5,-1
 0 1 l 1,6,-1
 0 0 l 1,7,-1
 2 0 l 1,4,-1
3 3 m 1,8,-1
 3 0 l 1,9,-1
 2 0 l 1,10,-1
 2 3 l 1,11,-1
 3 3 l 1,8,-1
0 4 m 1,12,-1
 0 3 l 1,13,-1
 3 3 l 1,14,-1
 3 4 l 1,15,-1
 0 4 l 1,12,-1
0 7 m 1,16,-1
 0 4 l 1,17,-1
 1 4 l 1,18,-1
 1 7 l 1,19,-1
 0 7 l 1,16,-1
EndSplineSet
Validated: 5
EndChar

StartChar: Z
Encoding: 90 90 91
Width: 4
GlyphClass: 2
Flags: W
LayerCount: 2
Fore
SplineSet
2 4 m 1,0,-1
 2 3 l 1,1,-1
 1 3 l 1,2,-1
 1 4 l 1,3,-1
 2 4 l 1,0,-1
3 6 m 1,4,-1
 3 4 l 1,5,-1
 2 4 l 1,6,-1
 2 6 l 1,7,-1
 3 6 l 1,4,-1
0 1 m 1,8,-1
 0 3 l 1,9,-1
 1 3 l 1,10,-1
 1 1 l 1,11,-1
 0 1 l 1,8,-1
0 0 m 1,12,-1
 0 1 l 1,13,-1
 3 1 l 1,14,-1
 3 0 l 1,15,-1
 0 0 l 1,12,-1
0 7 m 1,16,-1
 0 6 l 1,17,-1
 3 6 l 1,18,-1
 3 7 l 1,19,-1
 0 7 l 1,16,-1
EndSplineSet
Validated: 5
EndChar

StartChar: bracketleft
Encoding: 91 91 92
Width: 3
GlyphClass: 2
Flags: W
LayerCount: 2
Fore
SplineSet
1 7 m 1,0,-1
 1 6 l 1,1,-1
 2 6 l 1,2,-1
 2 7 l 1,3,-1
 1 7 l 1,0,-1
1 0 m 1,4,-1
 1 1 l 1,5,-1
 2 1 l 1,6,-1
 2 0 l 1,7,-1
 1 0 l 1,4,-1
0 7 m 1,8,-1
 1 7 l 1,9,-1
 1 0 l 1,10,-1
 0 0 l 1,11,-1
 0 7 l 1,8,-1
EndSplineSet
Validated: 5
EndChar

StartChar: backslash
Encoding: 92 92 93
Width: 4
GlyphClass: 2
Flags: W
LayerCount: 2
Fore
SplineSet
2 2 m 1,0,-1
 2 0 l 1,1,-1
 3 0 l 1,2,-1
 3 2 l 1,3,-1
 2 2 l 1,0,-1
1 3 m 1,4,-1
 1 2 l 1,5,-1
 2 2 l 1,6,-1
 2 3 l 1,7,-1
 1 3 l 1,4,-1
1 5 m 1,8,-1
 1 3 l 1,9,-1
 2 3 l 1,10,-1
 2 5 l 1,11,-1
 1 5 l 1,8,-1
0 7 m 1,12,-1
 0 5 l 1,13,-1
 1 5 l 1,14,-1
 1 7 l 1,15,-1
 0 7 l 1,12,-1
EndSplineSet
Validated: 5
EndChar

StartChar: bracketright
Encoding: 93 93 94
Width: 3
GlyphClass: 2
Flags: W
LayerCount: 2
Fore
SplineSet
1 0 m 1,0,-1
 1 1 l 1,1,-1
 0 1 l 1,2,-1
 0 0 l 1,3,-1
 1 0 l 1,0,-1
1 7 m 1,4,-1
 2 7 l 1,5,-1
 2 0 l 1,6,-1
 1 0 l 1,7,-1
 1 7 l 1,4,-1
0 7 m 1,8,-1
 0 6 l 1,9,-1
 1 6 l 1,10,-1
 1 7 l 1,11,-1
 0 7 l 1,8,-1
EndSplineSet
Validated: 5
EndChar

StartChar: asciicircum
Encoding: 94 94 95
Width: 4
GlyphClass: 2
Flags: W
LayerCount: 2
Fore
SplineSet
2 6 m 1,0,-1
 2 5 l 1,1,-1
 3 5 l 1,2,-1
 3 6 l 1,3,-1
 2 6 l 1,0,-1
1 7 m 1,4,-1
 1 6 l 1,5,-1
 2 6 l 1,6,-1
 2 7 l 1,7,-1
 1 7 l 1,4,-1
0 6 m 1,8,-1
 0 5 l 1,9,-1
 1 5 l 1,10,-1
 1 6 l 1,11,-1
 0 6 l 1,8,-1
EndSplineSet
Validated: 5
EndChar

StartChar: grave
Encoding: 96 96 97
Width: 4
GlyphClass: 2
Flags: W
LayerCount: 2
Fore
SplineSet
2 6 m 1,0,-1
 2 5 l 1,1,-1
 3 5 l 1,2,-1
 3 6 l 1,3,-1
 2 6 l 1,0,-1
1 7 m 1,4,-1
 1 6 l 1,5,-1
 2 6 l 1,6,-1
 2 7 l 1,7,-1
 1 7 l 1,4,-1
EndSplineSet
Validated: 5
EndChar

StartChar: a
Encoding: 97 97 98
Width: 4
GlyphClass: 2
Flags: W
LayerCount: 2
Fore
SplineSet
2 7 m 1,0,-1
 2 6 l 1,1,-1
 3 6 l 1,2,-1
 3 7 l 1,3,-1
 2 7 l 1,0,-1
0 7 m 1,4,-1
 0 6 l 1,5,-1
 1 6 l 1,6,-1
 1 7 l 1,7,-1
 0 7 l 1,4,-1
1 4 m 1,8,-1
 1 3 l 1,9,-1
 2 3 l 1,10,-1
 2 4 l 1,11,-1
 1 4 l 1,8,-1
2 6 m 1,12,-1
 3 6 l 1,13,-1
 3 0 l 1,14,-1
 2 0 l 1,15,-1
 2 6 l 1,12,-1
1 6 m 1,16,-1
 1 7 l 1,17,-1
 2 7 l 1,18,-1
 2 6 l 1,19,-1
 1 6 l 1,16,-1
0 6 m 1,20,-1
 1 6 l 1,21,-1
 1 0 l 1,22,-1
 0 0 l 1,23,-1
 0 6 l 1,20,-1
EndSplineSet
Validated: 5
EndChar

StartChar: b
Encoding: 98 98 99
Width: 4
GlyphClass: 2
Flags: W
LayerCount: 2
Fore
SplineSet
2 6 m 1,0,-1
 2 7 l 1,1,-1
 1 7 l 1,2,-1
 1 6 l 1,3,-1
 2 6 l 1,0,-1
2 4 m 1,4,-1
 2 6 l 1,5,-1
 3 6 l 1,6,-1
 3 4 l 1,7,-1
 2 4 l 1,4,-1
2 3 m 1,8,-1
 2 4 l 1,9,-1
 1 4 l 1,10,-1
 1 3 l 1,11,-1
 2 3 l 1,8,-1
2 1 m 1,12,-1
 2 3 l 1,13,-1
 3 3 l 1,14,-1
 3 1 l 1,15,-1
 2 1 l 1,12,-1
1 0 m 1,16,-1
 1 1 l 1,17,-1
 2 1 l 1,18,-1
 2 0 l 1,19,-1
 1 0 l 1,16,-1
0 7 m 1,20,-1
 1 7 l 1,21,-1
 1 0 l 1,22,-1
 0 0 l 1,23,-1
 0 7 l 1,20,-1
EndSplineSet
Validated: 5
EndChar

StartChar: c
Encoding: 99 99 100
Width: 4
GlyphClass: 2
Flags: W
LayerCount: 2
Fore
SplineSet
1 6 m 1,0,-1
 1 7 l 1,1,-1
 3 7 l 1,2,-1
 3 6 l 1,3,-1
 1 6 l 1,0,-1
1 1 m 1,4,-1
 1 0 l 1,5,-1
 3 0 l 1,6,-1
 3 1 l 1,7,-1
 1 1 l 1,4,-1
0 6 m 1,8,-1
 1 6 l 1,9,-1
 1 1 l 1,10,-1
 0 1 l 1,11,-1
 0 6 l 1,8,-1
EndSplineSet
Validated: 5
EndChar

StartChar: d
Encoding: 100 100 101
Width: 4
GlyphClass: 2
Flags: W
LayerCount: 2
Fore
SplineSet
2 6 m 1,0,-1
 2 7 l 1,1,-1
 1 7 l 1,2,-1
 1 6 l 1,3,-1
 2 6 l 1,0,-1
2 1 m 1,4,-1
 2 6 l 1,5,-1
 3 6 l 1,6,-1
 3 1 l 1,7,-1
 2 1 l 1,4,-1
1 0 m 1,8,-1
 1 1 l 1,9,-1
 2 1 l 1,10,-1
 2 0 l 1,11,-1
 1 0 l 1,8,-1
0 7 m 1,12,-1
 1 7 l 1,13,-1
 1 0 l 1,14,-1
 0 0 l 1,15,-1
 0 7 l 1,12,-1
EndSplineSet
Validated: 5
EndChar

StartChar: e
Encoding: 101 101 102
Width: 4
GlyphClass: 2
Flags: W
LayerCount: 2
Fore
SplineSet
1 7 m 1,0,-1
 1 6 l 1,1,-1
 3 6 l 1,2,-1
 3 7 l 1,3,-1
 1 7 l 1,0,-1
1 3 m 1,4,-1
 1 4 l 1,5,-1
 2 4 l 1,6,-1
 2 3 l 1,7,-1
 1 3 l 1,4,-1
1 0 m 1,8,-1
 1 1 l 1,9,-1
 3 1 l 1,10,-1
 3 0 l 1,11,-1
 1 0 l 1,8,-1
0 7 m 1,12,-1
 1 7 l 1,13,-1
 1 0 l 1,14,-1
 0 0 l 1,15,-1
 0 7 l 1,12,-1
EndSplineSet
Validated: 5
EndChar

StartChar: f
Encoding: 102 102 103
Width: 4
GlyphClass: 2
Flags: W
LayerCount: 2
Fore
SplineSet
1 4 m 1,0,-1
 1 3 l 1,1,-1
 2 3 l 1,2,-1
 2 4 l 1,3,-1
 1 4 l 1,0,-1
1 7 m 1,4,-1
 1 6 l 1,5,-1
 3 6 l 1,6,-1
 3 7 l 1,7,-1
 1 7 l 1,4,-1
0 7 m 1,8,-1
 1 7 l 1,9,-1
 1 0 l 1,10,-1
 0 0 l 1,11,-1
 0 7 l 1,8,-1
EndSplineSet
Validated: 5
EndChar

StartChar: g
Encoding: 103 103 104
Width: 4
GlyphClass: 2
Flags: W
LayerCount: 2
Fore
SplineSet
2 2 m 1,0,-1
 2 3 l 1,1,-1
 3 3 l 1,2,-1
 3 2 l 1,3,-1
 2 2 l 1,0,-1
1 7 m 1,4,-1
 1 6 l 1,5,-1
 3 6 l 1,6,-1
 3 7 l 1,7,-1
 1 7 l 1,4,-1
3 1 m 1,8,-1
 3 2 l 1,9,-1
 2 2 l 1,10,-1
 2 1 l 1,11,-1
 3 1 l 1,8,-1
1 0 m 1,12,-1
 1 1 l 1,13,-1
 3 1 l 1,14,-1
 3 0 l 1,15,-1
 1 0 l 1,12,-1
0 7 m 1,16,-1
 1 7 l 1,17,-1
 1 0 l 1,18,-1
 0 0 l 1,19,-1
 0 7 l 1,16,-1
EndSplineSet
Validated: 5
EndChar

StartChar: h
Encoding: 104 104 105
Width: 4
GlyphClass: 2
Flags: W
LayerCount: 2
Fore
SplineSet
2 7 m 1,0,-1
 3 7 l 1,1,-1
 3 0 l 1,2,-1
 2 0 l 1,3,-1
 2 7 l 1,0,-1
1 4 m 1,4,-1
 1 3 l 1,5,-1
 2 3 l 1,6,-1
 2 4 l 1,7,-1
 1 4 l 1,4,-1
0 7 m 1,8,-1
 1 7 l 1,9,-1
 1 0 l 1,10,-1
 0 0 l 1,11,-1
 0 7 l 1,8,-1
EndSplineSet
Validated: 5
EndChar

StartChar: i
Encoding: 105 105 106
Width: 2
GlyphClass: 2
Flags: W
LayerCount: 2
Fore
SplineSet
0 7 m 1,0,-1
 1 7 l 1,1,-1
 1 0 l 1,2,-1
 0 0 l 1,3,-1
 0 7 l 1,0,-1
EndSplineSet
Validated: 1
EndChar

StartChar: j
Encoding: 106 106 107
Width: 4
GlyphClass: 2
Flags: W
LayerCount: 2
Fore
SplineSet
2 1 m 1,0,-1
 2 7 l 1,1,-1
 3 7 l 1,2,-1
 3 1 l 1,3,-1
 2 1 l 1,0,-1
1 1 m 1,4,-1
 1 0 l 1,5,-1
 2 0 l 1,6,-1
 2 1 l 1,7,-1
 1 1 l 1,4,-1
0 0 m 1,8,-1
 0 1 l 1,9,-1
 1 1 l 1,10,-1
 1 0 l 1,11,-1
 0 0 l 1,8,-1
EndSplineSet
Validated: 5
EndChar

StartChar: k
Encoding: 107 107 108
Width: 4
GlyphClass: 2
Flags: W
LayerCount: 2
Fore
SplineSet
2 4 m 1,0,-1
 2 7 l 1,1,-1
 3 7 l 1,2,-1
 3 4 l 1,3,-1
 2 4 l 1,0,-1
2 3 m 1,4,-1
 2 0 l 1,5,-1
 3 0 l 1,6,-1
 3 3 l 1,7,-1
 2 3 l 1,4,-1
1 4 m 1,8,-1
 1 3 l 1,9,-1
 2 3 l 1,10,-1
 2 4 l 1,11,-1
 1 4 l 1,8,-1
0 7 m 1,12,-1
 1 7 l 1,13,-1
 1 0 l 1,14,-1
 0 0 l 1,15,-1
 0 7 l 1,12,-1
EndSplineSet
Validated: 5
EndChar

StartChar: l
Encoding: 108 108 109
Width: 4
GlyphClass: 2
Flags: W
LayerCount: 2
Fore
SplineSet
1 0 m 1,0,-1
 1 1 l 1,1,-1
 3 1 l 1,2,-1
 3 0 l 1,3,-1
 1 0 l 1,0,-1
0 7 m 1,4,-1
 1 7 l 1,5,-1
 1 0 l 1,6,-1
 0 0 l 1,7,-1
 0 7 l 1,4,-1
EndSplineSet
Validated: 5
EndChar

StartChar: m
Encoding: 109 109 110
Width: 6
GlyphClass: 2
Flags: W
LayerCount: 2
Fore
SplineSet
4 7 m 1,0,-1
 5 7 l 1,1,-1
 5 0 l 1,2,-1
 4 0 l 1,3,-1
 4 7 l 1,0,-1
3 7 m 1,4,-1
 3 6 l 1,5,-1
 4 6 l 1,6,-1
 4 7 l 1,7,-1
 3 7 l 1,4,-1
2 7 m 1,8,-1
 3 7 l 1,9,-1
 3 3 l 1,10,-1
 2 3 l 1,11,-1
 2 7 l 1,8,-1
1 7 m 1,12,-1
 1 6 l 1,13,-1
 2 6 l 1,14,-1
 2 7 l 1,15,-1
 1 7 l 1,12,-1
0 7 m 1,16,-1
 1 7 l 1,17,-1
 1 0 l 1,18,-1
 0 0 l 1,19,-1
 0 7 l 1,16,-1
EndSplineSet
Validated: 5
EndChar

StartChar: n
Encoding: 110 110 111
Width: 4
GlyphClass: 2
Flags: W
LayerCount: 2
Fore
SplineSet
3 6 m 1,0,-1
 3 0 l 1,1,-1
 2 0 l 1,2,-1
 2 6 l 1,3,-1
 3 6 l 1,0,-1
1 7 m 1,4,-1
 1 6 l 1,5,-1
 3 6 l 1,6,-1
 3 7 l 1,7,-1
 1 7 l 1,4,-1
0 7 m 1,8,-1
 1 7 l 1,9,-1
 1 0 l 1,10,-1
 0 0 l 1,11,-1
 0 7 l 1,8,-1
EndSplineSet
Validated: 5
EndChar

StartChar: o
Encoding: 111 111 112
Width: 4
GlyphClass: 2
Flags: W
LayerCount: 2
Fore
SplineSet
2 7 m 1,0,-1
 2 6 l 1,1,-1
 1 6 l 1,2,-1
 1 7 l 1,3,-1
 2 7 l 1,0,-1
2 0 m 1,4,-1
 2 7 l 1,5,-1
 3 7 l 1,6,-1
 3 0 l 1,7,-1
 2 0 l 1,4,-1
1 0 m 1,8,-1
 1 1 l 1,9,-1
 2 1 l 1,10,-1
 2 0 l 1,11,-1
 1 0 l 1,8,-1
0 7 m 1,12,-1
 1 7 l 1,13,-1
 1 0 l 1,14,-1
 0 0 l 1,15,-1
 0 7 l 1,12,-1
EndSplineSet
Validated: 5
EndChar

StartChar: p
Encoding: 112 112 113
Width: 4
GlyphClass: 2
Flags: W
LayerCount: 2
Fore
SplineSet
2 4 m 1,0,-1
 2 5 l 1,1,-1
 1 5 l 1,2,-1
 1 4 l 1,3,-1
 2 4 l 1,0,-1
3 6 m 1,4,-1
 3 4 l 1,5,-1
 2 4 l 1,6,-1
 2 6 l 1,7,-1
 3 6 l 1,4,-1
1 7 m 1,8,-1
 1 6 l 1,9,-1
 3 6 l 1,10,-1
 3 7 l 1,11,-1
 1 7 l 1,8,-1
0 7 m 1,12,-1
 1 7 l 1,13,-1
 1 0 l 1,14,-1
 0 0 l 1,15,-1
 0 7 l 1,12,-1
EndSplineSet
Validated: 5
EndChar

StartChar: q
Encoding: 113 113 114
Width: 4
GlyphClass: 2
Flags: W
LayerCount: 2
Fore
SplineSet
0 4 m 1,0,-1
 0 3 l 1,1,-1
 2 3 l 1,2,-1
 2 4 l 1,3,-1
 0 4 l 1,0,-1
0 6 m 1,4,-1
 0 4 l 1,5,-1
 1 4 l 1,6,-1
 1 6 l 1,7,-1
 0 6 l 1,4,-1
3 6 m 1,8,-1
 3 0 l 1,9,-1
 2 0 l 1,10,-1
 2 6 l 1,11,-1
 3 6 l 1,8,-1
0 7 m 1,12,-1
 0 6 l 1,13,-1
 3 6 l 1,14,-1
 3 7 l 1,15,-1
 0 7 l 1,12,-1
EndSplineSet
Validated: 5
EndChar

StartChar: r
Encoding: 114 114 115
Width: 4
GlyphClass: 2
Flags: W
LayerCount: 2
Fore
SplineSet
2 3 m 1,0,-1
 2 0 l 1,1,-1
 3 0 l 1,2,-1
 3 3 l 1,3,-1
 2 3 l 1,0,-1
1 4 m 1,4,-1
 1 3 l 1,5,-1
 2 3 l 1,6,-1
 2 4 l 1,7,-1
 1 4 l 1,4,-1
3 6 m 1,8,-1
 3 4 l 1,9,-1
 2 4 l 1,10,-1
 2 6 l 1,11,-1
 3 6 l 1,8,-1
1 7 m 1,12,-1
 1 6 l 1,13,-1
 3 6 l 1,14,-1
 3 7 l 1,15,-1
 1 7 l 1,12,-1
0 7 m 1,16,-1
 1 7 l 1,17,-1
 1 0 l 1,18,-1
 0 0 l 1,19,-1
 0 7 l 1,16,-1
EndSplineSet
Validated: 5
EndChar

StartChar: s
Encoding: 115 115 116
Width: 4
GlyphClass: 2
Flags: W
LayerCount: 2
Fore
SplineSet
2 0 m 1,0,-1
 2 1 l 1,1,-1
 0 1 l 1,2,-1
 0 0 l 1,3,-1
 2 0 l 1,0,-1
3 3 m 1,4,-1
 3 0 l 1,5,-1
 2 0 l 1,6,-1
 2 3 l 1,7,-1
 3 3 l 1,4,-1
0 4 m 1,8,-1
 0 3 l 1,9,-1
 3 3 l 1,10,-1
 3 4 l 1,11,-1
 0 4 l 1,8,-1
0 6 m 1,12,-1
 0 4 l 1,13,-1
 1 4 l 1,14,-1
 1 6 l 1,15,-1
 0 6 l 1,12,-1
0 7 m 1,16,-1
 0 6 l 1,17,-1
 3 6 l 1,18,-1
 3 7 l 1,19,-1
 0 7 l 1,16,-1
EndSplineSet
Validated: 5
EndChar

StartChar: t
Encoding: 116 116 117
Width: 4
GlyphClass: 2
Flags: W
LayerCount: 2
Fore
SplineSet
1 6 m 1,0,-1
 2 6 l 1,1,-1
 2 0 l 1,2,-1
 1 0 l 1,3,-1
 1 6 l 1,0,-1
0 7 m 1,4,-1
 0 6 l 1,5,-1
 3 6 l 1,6,-1
 3 7 l 1,7,-1
 0 7 l 1,4,-1
EndSplineSet
Validated: 5
EndChar

StartChar: u
Encoding: 117 117 118
Width: 4
GlyphClass: 2
Flags: W
LayerCount: 2
Fore
SplineSet
3 1 m 1,0,-1
 2 1 l 1,1,-1
 2 7 l 1,2,-1
 3 7 l 1,3,-1
 3 1 l 1,0,-1
1 0 m 1,4,-1
 1 1 l 1,5,-1
 3 1 l 1,6,-1
 3 0 l 1,7,-1
 1 0 l 1,4,-1
0 7 m 1,8,-1
 1 7 l 1,9,-1
 1 0 l 1,10,-1
 0 0 l 1,11,-1
 0 7 l 1,8,-1
EndSplineSet
Validated: 5
EndChar

StartChar: v
Encoding: 118 118 119
Width: 4
GlyphClass: 2
Flags: W
LayerCount: 2
Fore
SplineSet
2 2 m 1,0,-1
 2 7 l 1,1,-1
 3 7 l 1,2,-1
 3 2 l 1,3,-1
 2 2 l 1,0,-1
1 2 m 1,4,-1
 1 0 l 1,5,-1
 2 0 l 1,6,-1
 2 2 l 1,7,-1
 1 2 l 1,4,-1
0 3 m 1,8,-1
 0 2 l 1,9,-1
 1 2 l 1,10,-1
 1 3 l 1,11,-1
 0 3 l 1,8,-1
0 7 m 1,12,-1
 1 7 l 1,13,-1
 1 3 l 1,14,-1
 0 3 l 1,15,-1
 0 7 l 1,12,-1
EndSplineSet
Validated: 5
EndChar

StartChar: w
Encoding: 119 119 120
Width: 6
GlyphClass: 2
Flags: W
LayerCount: 2
Fore
SplineSet
4 7 m 1,0,-1
 5 7 l 1,1,-1
 5 1 l 1,2,-1
 4 1 l 1,3,-1
 4 7 l 1,0,-1
2 1 m 1,4,-1
 2 7 l 1,5,-1
 3 7 l 1,6,-1
 3 1 l 1,7,-1
 2 1 l 1,4,-1
1 0 m 1,8,-1
 1 1 l 1,9,-1
 5 1 l 1,10,-1
 5 0 l 1,11,-1
 1 0 l 1,8,-1
0 7 m 1,12,-1
 1 7 l 1,13,-1
 1 0 l 1,14,-1
 0 0 l 1,15,-1
 0 7 l 1,12,-1
EndSplineSet
Validated: 5
EndChar

StartChar: x
Encoding: 120 120 121
Width: 4
GlyphClass: 2
Flags: W
LayerCount: 2
Fore
SplineSet
2 5 m 1,0,-1
 2 7 l 1,1,-1
 3 7 l 1,2,-1
 3 5 l 1,3,-1
 2 5 l 1,0,-1
2 2 m 1,4,-1
 2 0 l 1,5,-1
 3 0 l 1,6,-1
 3 2 l 1,7,-1
 2 2 l 1,4,-1
1 3 m 1,8,-1
 1 2 l 1,9,-1
 2 2 l 1,10,-1
 2 3 l 1,11,-1
 1 3 l 1,8,-1
0 0 m 1,12,-1
 0 2 l 1,13,-1
 1 2 l 1,14,-1
 1 0 l 1,15,-1
 0 0 l 1,12,-1
1 5 m 1,16,-1
 1 3 l 1,17,-1
 2 3 l 1,18,-1
 2 5 l 1,19,-1
 1 5 l 1,16,-1
0 7 m 1,20,-1
 0 5 l 1,21,-1
 1 5 l 1,22,-1
 1 7 l 1,23,-1
 0 7 l 1,20,-1
EndSplineSet
Validated: 5
EndChar

StartChar: y
Encoding: 121 121 122
Width: 4
GlyphClass: 2
Flags: W
LayerCount: 2
Fore
SplineSet
3 4 m 1,0,-1
 3 7 l 1,1,-1
 2 7 l 1,2,-1
 2 4 l 1,3,-1
 3 4 l 1,0,-1
2 0 m 1,4,-1
 2 1 l 1,5,-1
 0 1 l 1,6,-1
 0 0 l 1,7,-1
 2 0 l 1,4,-1
3 3 m 1,8,-1
 3 0 l 1,9,-1
 2 0 l 1,10,-1
 2 3 l 1,11,-1
 3 3 l 1,8,-1
0 4 m 1,12,-1
 0 3 l 1,13,-1
 3 3 l 1,14,-1
 3 4 l 1,15,-1
 0 4 l 1,12,-1
0 7 m 1,16,-1
 0 4 l 1,17,-1
 1 4 l 1,18,-1
 1 7 l 1,19,-1
 0 7 l 1,16,-1
EndSplineSet
Validated: 5
EndChar

StartChar: z
Encoding: 122 122 123
Width: 4
GlyphClass: 2
Flags: W
LayerCount: 2
Fore
SplineSet
2 4 m 1,0,-1
 2 3 l 1,1,-1
 1 3 l 1,2,-1
 1 4 l 1,3,-1
 2 4 l 1,0,-1
3 6 m 1,4,-1
 3 4 l 1,5,-1
 2 4 l 1,6,-1
 2 6 l 1,7,-1
 3 6 l 1,4,-1
0 1 m 1,8,-1
 0 3 l 1,9,-1
 1 3 l 1,10,-1
 1 1 l 1,11,-1
 0 1 l 1,8,-1
0 0 m 1,12,-1
 0 1 l 1,13,-1
 3 1 l 1,14,-1
 3 0 l 1,15,-1
 0 0 l 1,12,-1
0 7 m 1,16,-1
 0 6 l 1,17,-1
 3 6 l 1,18,-1
 3 7 l 1,19,-1
 0 7 l 1,16,-1
EndSplineSet
Validated: 5
EndChar

StartChar: braceleft
Encoding: 123 123 124
Width: 3
GlyphClass: 2
Flags: W
LayerCount: 2
Fore
SplineSet
2 1 m 1,0,-1
 2 0 l 1,1,-1
 3 0 l 1,2,-1
 3 1 l 1,3,-1
 2 1 l 1,0,-1
1 3 m 1,4,-1
 1 1 l 1,5,-1
 2 1 l 1,6,-1
 2 3 l 1,7,-1
 1 3 l 1,4,-1
2 7 m 1,8,-1
 2 6 l 1,9,-1
 3 6 l 1,10,-1
 3 7 l 1,11,-1
 2 7 l 1,8,-1
2 6 m 1,12,-1
 2 7 l 1,13,-1
 2 6 l 1,12,-1
1 4 m 1,14,-1
 1 6 l 1,15,-1
 2 6 l 1,16,-1
 2 4 l 1,17,-1
 1 4 l 1,14,-1
0 4 m 1,18,-1
 0 3 l 1,19,-1
 1 3 l 1,20,-1
 1 4 l 1,21,-1
 0 4 l 1,18,-1
EndSplineSet
Validated: 5
EndChar

StartChar: bar
Encoding: 124 124 125
Width: 3
GlyphClass: 2
Flags: W
LayerCount: 2
Fore
SplineSet
2 7 m 1,0,-1
 3 7 l 1,1,-1
 3 0 l 1,2,-1
 2 0 l 1,3,-1
 2 7 l 1,0,-1
1 7 m 1,4,-1
 2 7 l 1,5,-1
 2 0 l 1,6,-1
 1 0 l 1,7,-1
 1 7 l 1,4,-1
EndSplineSet
Validated: 5
EndChar

StartChar: braceright
Encoding: 125 125 126
Width: 3
GlyphClass: 2
Flags: W
LayerCount: 2
Fore
SplineSet
0 1 m 1,0,-1
 0 0 l 1,1,-1
 1 0 l 1,2,-1
 1 1 l 1,3,-1
 0 1 l 1,0,-1
1 3 m 1,4,-1
 1 1 l 1,5,-1
 2 1 l 1,6,-1
 2 3 l 1,7,-1
 1 3 l 1,4,-1
2 4 m 1,8,-1
 2 3 l 1,9,-1
 3 3 l 1,10,-1
 3 4 l 1,11,-1
 2 4 l 1,8,-1
1 6 m 1,12,-1
 1 4 l 1,13,-1
 2 4 l 1,14,-1
 2 6 l 1,15,-1
 1 6 l 1,12,-1
0 7 m 1,16,-1
 0 6 l 1,17,-1
 1 6 l 1,18,-1
 1 7 l 1,19,-1
 0 7 l 1,16,-1
EndSplineSet
Validated: 5
EndChar

StartChar: asciitilde
Encoding: 126 126 127
Width: 5
GlyphClass: 2
Flags: W
LayerCount: 2
Fore
SplineSet
4 4 m 1,0,-1
 4 3 l 1,1,-1
 5 3 l 1,2,-1
 5 4 l 1,3,-1
 4 4 l 1,0,-1
3 3 m 1,4,-1
 3 2 l 1,5,-1
 4 2 l 1,6,-1
 4 3 l 1,7,-1
 3 3 l 1,4,-1
2 4 m 1,8,-1
 2 3 l 1,9,-1
 3 3 l 1,10,-1
 3 4 l 1,11,-1
 2 4 l 1,8,-1
1 5 m 1,12,-1
 1 4 l 1,13,-1
 2 4 l 1,14,-1
 2 5 l 1,15,-1
 1 5 l 1,12,-1
0 4 m 1,16,-1
 0 3 l 1,17,-1
 1 3 l 1,18,-1
 1 4 l 1,19,-1
 0 4 l 1,16,-1
EndSplineSet
Validated: 5
EndChar

StartChar: copyright
Encoding: 169 169 170
Width: 7
GlyphClass: 2
Flags: W
LayerCount: 2
Fore
SplineSet
6 2 m 1,0,-1
 6 5 l 1,1,-1
 7 5 l 1,2,-1
 7 2 l 1,3,-1
 6 2 l 1,0,-1
5 1 m 1,4,-1
 5 2 l 1,5,-1
 6 2 l 1,6,-1
 6 1 l 1,7,-1
 5 1 l 1,4,-1
2 1 m 1,8,-1
 2 0 l 1,9,-1
 5 0 l 1,10,-1
 5 1 l 1,11,-1
 2 1 l 1,8,-1
1 2 m 1,12,-1
 1 1 l 1,13,-1
 2 1 l 1,14,-1
 2 2 l 1,15,-1
 1 2 l 1,12,-1
0 3 m 1,16,-1
 0 2 l 1,17,-1
 1 2 l 1,18,-1
 1 3 l 1,19,-1
 0 3 l 1,16,-1
0 4 m 1,20,-1
 0 3 l 1,21,-1
 1 3 l 1,22,-1
 1 4 l 1,23,-1
 0 4 l 1,20,-1
0 5 m 1,24,-1
 0 4 l 1,25,-1
 1 4 l 1,26,-1
 1 5 l 1,27,-1
 0 5 l 1,24,-1
5 6 m 1,28,-1
 5 5 l 1,29,-1
 6 5 l 1,30,-1
 6 6 l 1,31,-1
 5 6 l 1,28,-1
4 7 m 1,32,-1
 4 6 l 1,33,-1
 5 6 l 1,34,-1
 5 7 l 1,35,-1
 4 7 l 1,32,-1
3 3 m 1,36,-1
 3 2 l 1,37,-1
 4 2 l 1,38,-1
 4 3 l 1,39,-1
 3 3 l 1,36,-1
3 4 m 1,40,-1
 3 3 l 1,41,-1
 2 3 l 1,42,-1
 2 4 l 1,43,-1
 3 4 l 1,40,-1
4 5 m 1,44,-1
 4 4 l 1,45,-1
 3 4 l 1,46,-1
 3 5 l 1,47,-1
 4 5 l 1,44,-1
3 7 m 1,48,-1
 3 6 l 1,49,-1
 4 6 l 1,50,-1
 4 7 l 1,51,-1
 3 7 l 1,48,-1
2 7 m 1,52,-1
 2 6 l 1,53,-1
 3 6 l 1,54,-1
 3 7 l 1,55,-1
 2 7 l 1,52,-1
1 6 m 1,56,-1
 1 5 l 1,57,-1
 2 5 l 1,58,-1
 2 6 l 1,59,-1
 1 6 l 1,56,-1
EndSplineSet
Validated: 5
EndChar
